<?xml version="1.0" encoding="UTF-8"?>
<!DOCTYPE svg PUBLIC "-//W3C//DTD SVG 1.1//EN" "http://www.w3.org/Graphics/SVG/1.1/DTD/svg11.dtd">
<svg xmlns="http://www.w3.org/2000/svg" version="1.1" width="720px" height="240px" style="shape-rendering:geometricPrecision; text-rendering:geometricPrecision; image-rendering:optimizeQuality; fill-rule:evenodd; clip-rule:evenodd" xmlns:xlink="http://www.w3.org/1999/xlink">
<g><path style="opacity:1" fill="#fbd5ca" d="M -0.5,-0.5 C 239.5,-0.5 479.5,-0.5 719.5,-0.5C 719.5,79.5 719.5,159.5 719.5,239.5C 699.167,239.5 678.833,239.5 658.5,239.5C 661.932,237.248 665.266,234.748 668.5,232C 673.475,232.328 678.475,232.328 683.5,232C 686.684,231.246 689.351,229.746 691.5,227.5C 694.694,225.464 697.027,222.631 698.5,219C 697.529,217.519 696.196,216.685 694.5,216.5C 689.849,213.447 685.016,212.781 680,214.5C 677.923,213.983 675.923,213.316 674,212.5C 670.366,215.328 667.366,214.662 665,210.5C 662.132,212.425 659.465,212.425 657,210.5C 654.384,210.597 651.551,210.931 648.5,211.5C 643.085,210.373 637.918,209.373 633,208.5C 626.616,210.692 620.616,210.358 615,207.5C 612.239,208.308 609.572,209.308 607,210.5C 606.5,210 606,209.5 605.5,209C 598.852,208.017 592.186,207.184 585.5,206.5C 582.175,206.997 579.009,207.997 576,209.5C 571.013,208.295 566.347,208.295 562,209.5C 560.676,208.12 559.343,207.786 558,208.5C 557.085,207.672 556.419,206.672 556,205.5C 555.25,206.126 554.416,206.626 553.5,207C 553.199,210.407 553.532,213.907 554.5,217.5C 552.974,215.55 551.974,213.217 551.5,210.5C 550.482,209.807 549.482,209.141 548.5,208.5C 548.5,208.167 548.5,207.833 548.5,207.5C 548.205,205.265 548.539,203.265 549.5,201.5C 549.105,207.661 550.105,207.994 552.5,202.5C 553.293,202.069 554.127,201.735 555,201.5C 557.875,203.964 561.208,205.631 565,206.5C 568.782,206.039 572.615,205.872 576.5,206C 578,205.167 579.167,204 580,202.5C 580.414,202.957 580.914,203.291 581.5,203.5C 583.709,202.894 585.876,202.227 588,201.5C 591.667,201.5 595.333,201.5 599,201.5C 599.354,203.807 600.354,204.141 602,202.5C 605.029,203.505 608.029,204.505 611,205.5C 617.481,205.167 624.147,203.834 631,201.5C 636.178,201.819 641.344,203.152 646.5,205.5C 649.131,204.656 651.631,204.323 654,204.5C 654.915,205.328 655.581,206.328 656,207.5C 658.881,205.972 661.214,206.638 663,209.5C 663.674,208.422 664.674,207.755 666,207.5C 670.766,208.688 675.433,209.688 680,210.5C 683.763,209.596 687.597,209.762 691.5,211C 693.597,214.233 696.264,215.4 699.5,214.5C 699.81,211.287 699.477,208.287 698.5,205.5C 697.784,202.402 696.284,199.736 694,197.5C 691.658,170.982 677.658,161.649 652,169.5C 648.75,169.208 645.583,168.542 642.5,167.5C 632.657,151.384 619.324,147.551 602.5,156C 600.959,157.371 599.625,158.871 598.5,160.5C 594.444,164.611 591.944,169.611 591,175.5C 589.416,176.861 587.582,177.528 585.5,177.5C 586.374,174.211 587.041,170.877 587.5,167.5C 589.377,160.057 590.71,152.39 591.5,144.5C 592.791,144.737 593.791,144.404 594.5,143.5C 598.268,143.118 601.268,141.451 603.5,138.5C 604.674,137.486 605.34,136.153 605.5,134.5C 606.461,132.735 606.795,130.735 606.5,128.5C 610.748,130.146 614.581,129.479 618,126.5C 616.647,130.092 617.98,131.759 622,131.5C 625.941,131.391 628.108,129.391 628.5,125.5C 626.297,125.396 624.297,124.73 622.5,123.5C 622.62,122.414 623.287,121.747 624.5,121.5C 627.919,123.384 631.586,124.384 635.5,124.5C 643.632,124.632 651.632,124.632 659.5,124.5C 660.343,122.827 661.676,121.66 663.5,121C 666.146,120.503 668.813,120.336 671.5,120.5C 671.36,122.124 672.027,123.29 673.5,124C 676.343,124.446 679.176,124.946 682,125.5C 684.664,125.251 686.831,124.085 688.5,122C 688.002,120.842 687.169,120.009 686,119.5C 683.901,119.447 681.734,119.78 679.5,120.5C 678.122,119.766 676.622,119.099 675,118.5C 674.955,115.666 674.121,113.166 672.5,111C 668.363,109.938 664.196,109.105 660,108.5C 658.27,108.509 656.437,108.842 654.5,109.5C 653.985,111.225 653.318,112.892 652.5,114.5C 649.445,113.322 646.445,111.489 643.5,109C 637.515,108.057 631.515,107.224 625.5,106.5C 620.62,106.515 617.953,108.848 617.5,113.5C 617.158,112.662 616.492,112.328 615.5,112.5C 614.427,111.749 614.26,110.749 615,109.5C 616.017,107.624 616.851,105.624 617.5,103.5C 618.167,103.167 618.833,102.833 619.5,102.5C 627.786,103.875 636.119,105.042 644.5,106C 647.035,108.793 650.035,109.626 653.5,108.5C 654.246,107.264 654.579,105.93 654.5,104.5C 654.783,103.711 655.283,103.044 656,102.5C 658.269,104.619 660.769,105.286 663.5,104.5C 666.833,105.5 670.167,106.5 673.5,107.5C 674.086,107.291 674.586,106.957 675,106.5C 675.816,109.143 676.316,111.81 676.5,114.5C 679.187,114.336 681.854,114.503 684.5,115C 686.757,116.45 689.09,117.617 691.5,118.5C 692.458,110.789 689.125,106.122 681.5,104.5C 679.951,99.398 676.951,95.398 672.5,92.5C 672.982,76.4828 665.315,68.6495 649.5,69C 644.822,70.676 640.989,73.5094 638,77.5C 632.25,71.8855 625.417,70.0521 617.5,72C 614.405,72.9354 612.071,74.7687 610.5,77.5C 607.512,80.4809 605.846,84.1476 605.5,88.5C 604.209,88.2627 603.209,88.596 602.5,89.5C 588.871,86.6476 580.704,91.9809 578,105.5C 576.955,106.373 576.122,107.373 575.5,108.5C 575.167,108.5 574.833,108.5 574.5,108.5C 572.97,107.933 571.47,107.267 570,106.5C 564.165,97.9897 559.165,88.9897 555,79.5C 554.63,82.3378 554.797,85.1711 555.5,88C 555.457,90.7966 554.623,93.2966 553,95.5C 552.821,91.9748 552.321,88.6414 551.5,85.5C 551.389,77.8036 548.389,71.637 542.5,67C 540.19,66.5034 537.857,66.3367 535.5,66.5C 539.074,65.2262 542.741,65.3929 546.5,67C 551.327,70.8251 556.494,73.9918 562,76.5C 564.247,74.8452 566.58,74.5119 569,75.5C 572.599,74.1906 576.099,72.6906 579.5,71C 582.359,70.447 585.192,70.6137 588,71.5C 590.5,71 593,70.5 595.5,70C 598.318,67.8849 598.151,66.0516 595,64.5C 594.667,64.8333 594.333,65.1667 594,65.5C 591.077,64.0441 588.077,62.7108 585,61.5C 583.415,62.0439 581.915,62.7106 580.5,63.5C 578.649,63.6491 576.816,63.6491 575,63.5C 574.167,62.6667 573.333,61.8333 572.5,61C 568.584,60.5418 564.75,59.7085 561,58.5C 554.853,55.1172 548.52,52.1172 542,49.5C 541.439,50.0219 540.772,50.3552 540,50.5C 532.747,48.3547 525.413,46.3547 518,44.5C 515.047,45.751 512.047,45.751 509,44.5C 506.331,45.0161 503.831,45.6827 501.5,46.5C 500.5,46.5 499.5,46.5 498.5,46.5C 498.5,47.5 498.5,48.5 498.5,49.5C 498.607,51.3786 498.107,51.7119 497,50.5C 496.08,53.1013 495.413,55.7679 495,58.5C 487.542,58.4123 480.042,57.4123 472.5,55.5C 468.303,56.2664 464.303,57.5997 460.5,59.5C 458.83,58.0052 456.997,56.6718 455,55.5C 453.981,56.6872 452.814,57.6872 451.5,58.5C 446.992,57.0643 442.492,56.731 438,57.5C 435.837,56.332 433.837,55.6654 432,55.5C 431.51,56.7932 431.343,58.1266 431.5,59.5C 433.184,64.0255 436.184,67.5255 440.5,70C 446.167,70.3333 451.833,70.6667 457.5,71C 469.685,80.8502 482.685,82.0168 496.5,74.5C 496.859,76.371 497.859,77.871 499.5,79C 504.735,81.7848 510.068,84.2848 515.5,86.5C 506.759,103.805 503.259,122.138 505,141.5C 505.387,144.599 506.554,147.266 508.5,149.5C 508.5,149.833 508.5,150.167 508.5,150.5C 506.018,151.663 504.684,153.663 504.5,156.5C 503.542,156.047 502.708,155.381 502,154.5C 501.366,151.445 501.532,148.445 502.5,145.5C 502.631,144.624 502.298,143.957 501.5,143.5C 500.205,144.098 498.872,144.598 497.5,145C 493.968,149.36 490.301,153.527 486.5,157.5C 481.575,159.257 478.075,162.59 476,167.5C 474.71,171.73 474.21,176.064 474.5,180.5C 473.711,180.783 473.044,181.283 472.5,182C 468.5,182.333 464.5,182.667 460.5,183C 458.676,183.66 457.343,184.827 456.5,186.5C 450.949,193.42 451.615,199.92 458.5,206C 466.928,207.007 475.262,208.507 483.5,210.5C 485.5,210.333 487.5,210.167 489.5,210C 491.886,208.807 494.22,207.64 496.5,206.5C 498.746,207.21 501.08,207.71 503.5,208C 505.228,209.726 507.228,211.059 509.5,212C 512.735,212.229 515.735,212.396 518.5,212.5C 518.579,215.271 518.079,217.937 517,220.5C 514.602,221.856 512.102,223.023 509.5,224C 508.748,224.671 508.414,225.504 508.5,226.5C 508.328,227.492 508.662,228.158 509.5,228.5C 515.309,229.964 517.975,233.631 517.5,239.5C 344.833,239.5 172.167,239.5 -0.5,239.5C -0.5,159.5 -0.5,79.5 -0.5,-0.5 Z"/></g>
<g><path style="opacity:1" fill="#fefbf9" d="M 600.5,55.5 C 600.53,56.4972 600.03,57.1639 599,57.5C 594.336,54.9284 589.503,54.2618 584.5,55.5C 584.657,54.1266 584.49,52.7932 584,51.5C 581.833,50 579.667,48.5 577.5,47C 575.343,46.9219 573.343,46.7552 571.5,46.5C 570.252,47.0402 569.085,47.7069 568,48.5C 565.198,47.6702 562.365,46.8368 559.5,46C 558.653,41.895 557.987,37.7283 557.5,33.5C 556.448,33.6495 555.448,33.4828 554.5,33C 554.833,32.6667 555.167,32.3333 555.5,32C 553.428,29.2138 550.761,27.8805 547.5,28C 548.167,28.3333 548.833,28.6667 549.5,29C 547.314,30.309 545.147,30.4757 543,29.5C 539.869,30.2061 536.702,30.8728 533.5,31.5C 530.997,30.0357 528.33,28.869 525.5,28C 524.354,25.8562 522.854,24.0228 521,22.5C 515.326,18.8304 509.326,16.8304 503,16.5C 502,17.5 501,18.5 500,19.5C 498.284,18.4477 497.284,19.1144 497,21.5C 492.751,18.3593 487.917,16.5259 482.5,16C 482.833,15.6667 483.167,15.3333 483.5,15C 481.336,13.9778 479.336,12.8111 477.5,11.5C 480.656,6.67132 485.156,4.33799 491,4.5C 496.141,4.71351 500.974,6.04684 505.5,8.5C 519.34,1.8511 533.174,1.8511 547,8.5C 557.53,2.30442 567.196,3.30442 576,11.5C 579.114,14.9589 580.114,18.9589 579,23.5C 578.057,21.0456 576.224,20.0456 573.5,20.5C 570.044,20.8182 566.711,21.6516 563.5,23C 562.768,26.153 563.101,29.3196 564.5,32.5C 567.802,32.0564 571.135,32.5564 574.5,34C 579.2,38.0677 583.2,42.7344 586.5,48C 592.837,47.6645 597.503,50.1645 600.5,55.5 Z"/></g>
<g><path style="opacity:1" fill="#fefbf9" d="M 493.5,40.5 C 493.5,41.8333 493.5,43.1667 493.5,44.5C 490.073,43.9016 486.74,43.7349 483.5,44C 482.874,43.2496 482.374,42.4162 482,41.5C 481.667,41.8333 481.333,42.1667 481,42.5C 479.915,41.7069 478.748,41.0402 477.5,40.5C 474.202,37.5675 470.702,34.9008 467,32.5C 465.055,34.1814 463.055,34.848 461,34.5C 459.961,33.7562 459.461,32.7562 459.5,31.5C 462.993,27.5813 467.326,24.9146 472.5,23.5C 479.648,20.6117 486.315,21.6117 492.5,26.5C 493.251,25.624 493.751,24.624 494,23.5C 494.782,26.2569 494.282,28.7569 492.5,31C 493.451,34.0567 493.784,37.2234 493.5,40.5 Z"/></g>
<g><path style="opacity:1" fill="#fef1ee" d="M 477.5,11.5 C 479.336,12.8111 481.336,13.9778 483.5,15C 483.167,15.3333 482.833,15.6667 482.5,16C 487.917,16.5259 492.751,18.3593 497,21.5C 497.284,19.1144 498.284,18.4477 500,19.5C 501,18.5 502,17.5 503,16.5C 509.326,16.8304 515.326,18.8304 521,22.5C 522.854,24.0228 524.354,25.8562 525.5,28C 528.33,28.869 530.997,30.0357 533.5,31.5C 536.702,30.8728 539.869,30.2061 543,29.5C 545.147,30.4757 547.314,30.309 549.5,29C 548.833,28.6667 548.167,28.3333 547.5,28C 550.761,27.8805 553.428,29.2138 555.5,32C 555.167,32.3333 554.833,32.6667 554.5,33C 555.448,33.4828 556.448,33.6495 557.5,33.5C 557.987,37.7283 558.653,41.895 559.5,46C 562.365,46.8368 565.198,47.6702 568,48.5C 569.085,47.7069 570.252,47.0402 571.5,46.5C 573.343,46.7552 575.343,46.9219 577.5,47C 579.667,48.5 581.833,50 584,51.5C 584.49,52.7932 584.657,54.1266 584.5,55.5C 589.503,54.2618 594.336,54.9284 599,57.5C 600.03,57.1639 600.53,56.4972 600.5,55.5C 601.451,56.9187 601.784,58.5853 601.5,60.5C 597.288,59.2534 592.955,58.4201 588.5,58C 584.299,56.2408 579.966,54.2408 575.5,52C 570.833,51.3333 566.167,50.6667 561.5,50C 558.768,48.2621 557.268,45.7621 557,42.5C 555.883,42.3349 554.716,42.0016 553.5,41.5C 552.749,40.624 552.249,39.624 552,38.5C 548.224,38.3229 544.391,38.3229 540.5,38.5C 532.822,37.0412 525.156,35.3745 517.5,33.5C 517.911,30.7237 517.078,30.057 515,31.5C 510.52,30.9851 506.186,29.9851 502,28.5C 500.667,30.5 499.333,32.5 498,34.5C 497.667,34.1667 497.333,33.8333 497,33.5C 496.861,36.4453 495.694,38.7786 493.5,40.5C 493.784,37.2234 493.451,34.0567 492.5,31C 494.282,28.7569 494.782,26.2569 494,23.5C 493.751,24.624 493.251,25.624 492.5,26.5C 486.315,21.6117 479.648,20.6117 472.5,23.5C 472.543,18.7559 474.21,14.7559 477.5,11.5 Z"/></g>
<g><path style="opacity:1" fill="#fce8ae" d="M 629.5,24.5 C 625.87,33.3751 628.87,37.8751 638.5,38C 635.854,38.4974 633.187,38.6641 630.5,38.5C 628.589,38.4257 627.422,37.4257 627,35.5C 626.667,32.8333 626.333,30.1667 626,27.5C 624.882,31.4558 622.382,33.7892 618.5,34.5C 615.246,34.2064 612.579,32.873 610.5,30.5C 613.394,31.9608 616.394,32.7942 619.5,33C 622.381,30.7213 624.381,27.888 625.5,24.5C 626.833,21.8333 628.167,21.8333 629.5,24.5 Z"/></g>
<g><path style="opacity:1" fill="#f6c043" d="M 625.5,24.5 C 624.381,27.888 622.381,30.7213 619.5,33C 616.394,32.7942 613.394,31.9608 610.5,30.5C 610.5,30.1667 610.5,29.8333 610.5,29.5C 613.85,29.665 617.183,29.4983 620.5,29C 622.037,27.2927 623.704,25.7927 625.5,24.5 Z"/></g>
<g><path style="opacity:1" fill="#f5ce48" d="M 630.5,38.5 C 632.948,39.4731 635.615,39.8064 638.5,39.5C 635.435,40.8184 632.269,40.8184 629,39.5C 627.494,41.0653 625.994,41.3986 624.5,40.5C 624.631,39.7611 624.464,39.0944 624,38.5C 621.985,37.3034 620.151,35.9701 618.5,34.5C 622.382,33.7892 624.882,31.4558 626,27.5C 626.333,30.1667 626.667,32.8333 627,35.5C 627.422,37.4257 628.589,38.4257 630.5,38.5 Z"/></g>
<g><path style="opacity:1" fill="#f8e57f" d="M 629.5,24.5 C 630.017,27.5823 630.85,30.5823 632,33.5C 634.545,34.5218 637.045,35.6884 639.5,37C 640.252,37.6708 640.586,38.5041 640.5,39.5C 639.833,39.5 639.167,39.5 638.5,39.5C 635.615,39.8064 632.948,39.4731 630.5,38.5C 633.187,38.6641 635.854,38.4974 638.5,38C 628.87,37.8751 625.87,33.3751 629.5,24.5 Z"/></g>
<g><path style="opacity:1" fill="#f2a914" d="M 610.5,29.5 C 610.5,29.8333 610.5,30.1667 610.5,30.5C 612.579,32.873 615.246,34.2064 618.5,34.5C 620.151,35.9701 621.985,37.3034 624,38.5C 624.464,39.0944 624.631,39.7611 624.5,40.5C 623.957,40.56 623.624,40.8933 623.5,41.5C 625.508,45.0217 627.175,48.6884 628.5,52.5C 626.113,50.0869 623.946,47.4202 622,44.5C 619.122,45.6886 616.288,47.0219 613.5,48.5C 613.167,48.1667 612.833,47.8333 612.5,47.5C 614.226,45.7721 615.559,43.7721 616.5,41.5C 617.729,40.7189 619.062,40.2189 620.5,40C 617.148,38.6651 614.315,36.4984 612,33.5C 612.222,35.4564 613.055,37.2897 614.5,39C 613.906,39.4643 613.239,39.631 612.5,39.5C 611.044,36.7533 609.711,33.92 608.5,31C 608.836,29.9701 609.503,29.4701 610.5,29.5 Z"/></g>
<g><path style="opacity:1" fill="#fef4f1" d="M 459.5,31.5 C 459.461,32.7562 459.961,33.7562 461,34.5C 463.055,34.848 465.055,34.1814 467,32.5C 470.702,34.9008 474.202,37.5675 477.5,40.5C 478.748,41.0402 479.915,41.7069 481,42.5C 481.333,42.1667 481.667,41.8333 482,41.5C 482.374,42.4162 482.874,43.2496 483.5,44C 486.74,43.7349 490.073,43.9016 493.5,44.5C 493.142,46.7012 491.808,48.0345 489.5,48.5C 487.958,47.2532 486.458,47.2532 485,48.5C 478.529,44.9557 471.362,42.6223 463.5,41.5C 458.672,42.3313 455.338,44.9979 453.5,49.5C 452.5,49.8333 451.5,50.1667 450.5,50.5C 448.076,49.262 445.742,47.762 443.5,46C 440.5,45.6667 437.5,45.3333 434.5,45C 432.681,44.2597 431.348,43.0931 430.5,41.5C 432.397,38.4406 435.064,36.2739 438.5,35C 443.362,34.3079 448.195,34.4745 453,35.5C 455.542,34.7946 457.708,33.4613 459.5,31.5 Z"/></g>
<g><path style="opacity:1" fill="#fce4de" d="M 601.5,60.5 C 601.304,62.6456 600.304,62.8122 598.5,61C 591.048,60.7686 583.715,59.7686 576.5,58C 573.332,56.232 570.332,54.8987 567.5,54C 564.571,53.2228 561.737,53.3895 559,54.5C 558.082,52.3676 556.749,51.701 555,52.5C 554.517,51.552 554.351,50.552 554.5,49.5C 539.917,45.3506 524.75,42.3506 509,40.5C 505.872,41.2037 502.706,41.7037 499.5,42C 498.636,43.6965 497.303,44.8632 495.5,45.5C 494.534,47.396 494.201,49.396 494.5,51.5C 485.627,52.9616 477.127,51.2949 469,46.5C 463.364,47.9812 458.03,50.3146 453,53.5C 448.482,51.7503 443.649,51.417 438.5,52.5C 436.711,51.1228 434.711,50.1228 432.5,49.5C 431.803,51.3845 430.803,51.7178 429.5,50.5C 428.562,54.5047 428.395,58.5047 429,62.5C 427.075,59.4929 426.241,56.1596 426.5,52.5C 425.913,48.0298 427.246,44.3632 430.5,41.5C 431.348,43.0931 432.681,44.2597 434.5,45C 437.5,45.3333 440.5,45.6667 443.5,46C 445.742,47.762 448.076,49.262 450.5,50.5C 451.5,50.1667 452.5,49.8333 453.5,49.5C 455.338,44.9979 458.672,42.3313 463.5,41.5C 471.362,42.6223 478.529,44.9557 485,48.5C 486.458,47.2532 487.958,47.2532 489.5,48.5C 491.808,48.0345 493.142,46.7012 493.5,44.5C 493.5,43.1667 493.5,41.8333 493.5,40.5C 495.694,38.7786 496.861,36.4453 497,33.5C 497.333,33.8333 497.667,34.1667 498,34.5C 499.333,32.5 500.667,30.5 502,28.5C 506.186,29.9851 510.52,30.9851 515,31.5C 517.078,30.057 517.911,30.7237 517.5,33.5C 525.156,35.3745 532.822,37.0412 540.5,38.5C 544.391,38.3229 548.224,38.3229 552,38.5C 552.249,39.624 552.749,40.624 553.5,41.5C 554.716,42.0016 555.883,42.3349 557,42.5C 557.268,45.7621 558.768,48.2621 561.5,50C 566.167,50.6667 570.833,51.3333 575.5,52C 579.966,54.2408 584.299,56.2408 588.5,58C 592.955,58.4201 597.288,59.2534 601.5,60.5 Z"/></g>
<g><path style="opacity:1" fill="#f4c427" d="M 638.5,39.5 C 639.167,39.5 639.833,39.5 640.5,39.5C 637.821,41.6009 634.988,43.6009 632,45.5C 631.741,48.5867 631.241,51.5867 630.5,54.5C 629.5,54.1667 628.833,53.5 628.5,52.5C 627.175,48.6884 625.508,45.0217 623.5,41.5C 623.624,40.8933 623.957,40.56 624.5,40.5C 625.994,41.3986 627.494,41.0653 629,39.5C 632.269,40.8184 635.435,40.8184 638.5,39.5 Z"/></g>
<g><path style="opacity:1" fill="#f79a3b" d="M 628.5,52.5 C 628.833,53.5 629.5,54.1667 630.5,54.5C 629.399,55.5983 628.066,55.765 626.5,55C 625.167,53.6667 623.833,52.3333 622.5,51C 618.47,50.6743 614.47,50.6743 610.5,51C 609.978,50.4387 609.645,49.772 609.5,49C 611.007,45.9788 612.007,42.8121 612.5,39.5C 613.239,39.631 613.906,39.4643 614.5,39C 613.055,37.2897 612.222,35.4564 612,33.5C 614.315,36.4984 617.148,38.6651 620.5,40C 619.062,40.2189 617.729,40.7189 616.5,41.5C 615.559,43.7721 614.226,45.7721 612.5,47.5C 612.833,47.8333 613.167,48.1667 613.5,48.5C 616.288,47.0219 619.122,45.6886 622,44.5C 623.946,47.4202 626.113,50.0869 628.5,52.5 Z"/></g>
<g><path style="opacity:1" fill="#f9c145" d="M 505.5,48.5 C 507.5,50.1667 509.5,51.8333 511.5,53.5C 513.606,56.7813 515.939,59.948 518.5,63C 516.76,66.5777 514.427,69.7443 511.5,72.5C 513.81,76.476 516.81,79.8093 520.5,82.5C 520.5,83.1667 520.833,83.5 521.5,83.5C 521.833,84.1667 522.167,84.8333 522.5,85.5C 515.019,82.5944 508.019,78.9277 501.5,74.5C 504.296,71.2026 507.296,68.0359 510.5,65C 508.326,65.9372 505.993,66.7706 503.5,67.5C 503.5,66.8333 503.833,66.5 504.5,66.5C 506.651,64.8501 508.651,63.0168 510.5,61C 508.533,56.929 506.867,52.7623 505.5,48.5 Z"/></g>
<g><path style="opacity:1" fill="#c57c35" d="M 501.5,46.5 C 503.38,46.2291 504.713,46.8958 505.5,48.5C 506.867,52.7623 508.533,56.929 510.5,61C 508.651,63.0168 506.651,64.8501 504.5,66.5C 504.461,60.099 502.461,54.4324 498.5,49.5C 498.5,48.5 498.5,47.5 498.5,46.5C 499.5,46.5 500.5,46.5 501.5,46.5 Z"/></g>
<g><path style="opacity:1" fill="#f2c8bc" d="M 580.5,63.5 C 580.582,65.2517 579.749,66.2517 578,66.5C 568.845,65.3976 560.678,62.0642 553.5,56.5C 552.575,57.6405 551.741,57.6405 551,56.5C 550.331,59.0278 549.498,59.0278 548.5,56.5C 540.48,55.4989 532.48,54.4989 524.5,53.5C 521.887,54.6362 519.387,54.3028 517,52.5C 514.885,53.252 513.052,53.5853 511.5,53.5C 509.5,51.8333 507.5,50.1667 505.5,48.5C 504.713,46.8958 503.38,46.2291 501.5,46.5C 503.831,45.6827 506.331,45.0161 509,44.5C 512.047,45.751 515.047,45.751 518,44.5C 525.413,46.3547 532.747,48.3547 540,50.5C 540.772,50.3552 541.439,50.0219 542,49.5C 548.52,52.1172 554.853,55.1172 561,58.5C 564.75,59.7085 568.584,60.5418 572.5,61C 573.333,61.8333 574.167,62.6667 575,63.5C 576.816,63.6491 578.649,63.6491 580.5,63.5 Z"/></g>
<g><path style="opacity:1" fill="#e1b9ab" d="M 580.5,63.5 C 581.915,62.7106 583.415,62.0439 585,61.5C 588.077,62.7108 591.077,64.0441 594,65.5C 594.333,65.1667 594.667,64.8333 595,64.5C 598.151,66.0516 598.318,67.8849 595.5,70C 593,70.5 590.5,71 588,71.5C 585.192,70.6137 582.359,70.447 579.5,71C 576.099,72.6906 572.599,74.1906 569,75.5C 566.58,74.5119 564.247,74.8452 562,76.5C 556.494,73.9918 551.327,70.8251 546.5,67C 542.741,65.3929 539.074,65.2262 535.5,66.5C 529.16,70.5089 524.16,75.8422 520.5,82.5C 516.81,79.8093 513.81,76.476 511.5,72.5C 514.427,69.7443 516.76,66.5777 518.5,63C 515.939,59.948 513.606,56.7813 511.5,53.5C 513.052,53.5853 514.885,53.252 517,52.5C 519.387,54.3028 521.887,54.6362 524.5,53.5C 532.48,54.4989 540.48,55.4989 548.5,56.5C 549.498,59.0278 550.331,59.0278 551,56.5C 551.741,57.6405 552.575,57.6405 553.5,56.5C 560.678,62.0642 568.845,65.3976 578,66.5C 579.749,66.2517 580.582,65.2517 580.5,63.5 Z"/></g>
<g><path style="opacity:1" fill="#e6bfb1" d="M 498.5,49.5 C 502.461,54.4324 504.461,60.099 504.5,66.5C 503.833,66.5 503.5,66.8333 503.5,67.5C 501.772,69.2255 499.772,70.5589 497.5,71.5C 487.188,76.7276 476.855,76.7276 466.5,71.5C 465.684,69.7127 464.684,68.0461 463.5,66.5C 464.326,65.549 464.492,64.549 464,63.5C 462.372,64.0966 460.705,63.7633 459,62.5C 457.988,64.8642 456.655,66.1976 455,66.5C 454.667,66.1667 454.333,65.8333 454,65.5C 453.612,66.428 452.945,67.0946 452,67.5C 449.476,68.1043 446.976,68.771 444.5,69.5C 441.891,67.9288 439.224,66.4288 436.5,65C 437.314,61.9246 439.314,60.2579 442.5,60C 442.167,59.6667 441.833,59.3333 441.5,59C 438.223,59.2012 434.889,59.3679 431.5,59.5C 431.343,58.1266 431.51,56.7932 432,55.5C 433.837,55.6654 435.837,56.332 438,57.5C 442.492,56.731 446.992,57.0643 451.5,58.5C 452.814,57.6872 453.981,56.6872 455,55.5C 456.997,56.6718 458.83,58.0052 460.5,59.5C 464.303,57.5997 468.303,56.2664 472.5,55.5C 480.042,57.4123 487.542,58.4123 495,58.5C 495.413,55.7679 496.08,53.1013 497,50.5C 498.107,51.7119 498.607,51.3786 498.5,49.5 Z"/></g>
<g><path style="opacity:1" fill="#c1826b" d="M 535.5,66.5 C 537.857,66.3367 540.19,66.5034 542.5,67C 548.389,71.637 551.389,77.8036 551.5,85.5C 551.819,90.3633 551.486,95.03 550.5,99.5C 550.5,98.1667 550.5,96.8333 550.5,95.5C 550.5,92.1667 550.5,88.8333 550.5,85.5C 549.854,81.2023 548.354,77.2023 546,73.5C 540.337,69.3507 534.837,69.5173 529.5,74C 526.223,76.7663 523.557,79.933 521.5,83.5C 520.833,83.5 520.5,83.1667 520.5,82.5C 524.16,75.8422 529.16,70.5089 535.5,66.5 Z"/></g>
<g><path style="opacity:1" fill="#feea5d" d="M 501.5,74.5 C 499.833,74.5 498.167,74.5 496.5,74.5C 496.557,73.391 496.89,72.391 497.5,71.5C 499.772,70.5589 501.772,69.2255 503.5,67.5C 505.993,66.7706 508.326,65.9372 510.5,65C 507.296,68.0359 504.296,71.2026 501.5,74.5 Z"/></g>
<g><path style="opacity:1" fill="#411216" d="M 71.5,71.5 C 74.5,71.5 77.5,71.5 80.5,71.5C 80.5,83.1667 80.5,94.8333 80.5,106.5C 77.5,106.5 74.5,106.5 71.5,106.5C 71.5,94.8333 71.5,83.1667 71.5,71.5 Z"/></g>
<g><path style="opacity:1" fill="#8d615f" d="M 71.5,71.5 C 74.6248,70.5206 77.9581,70.1872 81.5,70.5C 81.8284,82.6783 81.4951,94.6783 80.5,106.5C 80.5,94.8333 80.5,83.1667 80.5,71.5C 77.5,71.5 74.5,71.5 71.5,71.5 Z"/></g>
<g><path style="opacity:1" fill="#47171b" d="M 141.5,71.5 C 144.5,71.5 147.5,71.5 150.5,71.5C 150.334,76.1785 150.501,80.8452 151,85.5C 151.513,84.4734 152.013,83.4734 152.5,82.5C 157.62,78.2682 162.454,78.6015 167,83.5C 168.432,91.0542 168.932,98.7208 168.5,106.5C 165.167,106.5 161.833,106.5 158.5,106.5C 158.666,100.491 158.499,94.4908 158,88.5C 156,87.1667 154,87.1667 152,88.5C 151.501,94.4908 151.334,100.491 151.5,106.5C 148.167,106.5 144.833,106.5 141.5,106.5C 141.5,94.8333 141.5,83.1667 141.5,71.5 Z"/></g>
<g><path style="opacity:1" fill="#b08581" d="M 141.5,71.5 C 144.625,70.5206 147.958,70.1872 151.5,70.5C 151.183,74.7016 151.517,78.7016 152.5,82.5C 152.013,83.4734 151.513,84.4734 151,85.5C 150.501,80.8452 150.334,76.1785 150.5,71.5C 147.5,71.5 144.5,71.5 141.5,71.5 Z"/></g>
<g><path style="opacity:1" fill="#411216" d="M 273.5,71.5 C 276.5,71.5 279.5,71.5 282.5,71.5C 282.5,83.1667 282.5,94.8333 282.5,106.5C 279.5,106.5 276.5,106.5 273.5,106.5C 273.5,94.8333 273.5,83.1667 273.5,71.5 Z"/></g>
<g><path style="opacity:1" fill="#8d615f" d="M 273.5,71.5 C 276.625,70.5206 279.958,70.1872 283.5,70.5C 283.828,82.6783 283.495,94.6783 282.5,106.5C 282.5,94.8333 282.5,83.1667 282.5,71.5C 279.5,71.5 276.5,71.5 273.5,71.5 Z"/></g>
<g><path style="opacity:1" fill="#7a4c4c" d="M 68.5,73.5 C 60.8333,73.5 53.1667,73.5 45.5,73.5C 45.5,84.5 45.5,95.5 45.5,106.5C 44.5052,95.3456 44.1719,84.0123 44.5,72.5C 52.6841,72.1743 60.6841,72.5076 68.5,73.5 Z"/></g>
<g><path style="opacity:1" fill="#421217" d="M 68.5,73.5 C 68.5,75.8333 68.5,78.1667 68.5,80.5C 64.1667,80.5 59.8333,80.5 55.5,80.5C 54.5318,82.6074 54.1984,84.9407 54.5,87.5C 58.8333,87.5 63.1667,87.5 67.5,87.5C 67.5,89.8333 67.5,92.1667 67.5,94.5C 63.1667,94.5 58.8333,94.5 54.5,94.5C 54.5,98.5 54.5,102.5 54.5,106.5C 51.5,106.5 48.5,106.5 45.5,106.5C 45.5,95.5 45.5,84.5 45.5,73.5C 53.1667,73.5 60.8333,73.5 68.5,73.5 Z"/></g>
<g><path style="opacity:1" fill="#7c4f4e" d="M 200.5,73.5 C 194.5,73.5 188.5,73.5 182.5,73.5C 182.5,84.5 182.5,95.5 182.5,106.5C 181.505,95.3456 181.172,84.0123 181.5,72.5C 188.022,72.1765 194.355,72.5098 200.5,73.5 Z"/></g>
<g><path style="opacity:1" fill="#441418" d="M 200.5,73.5 C 206.629,74.1252 210.462,77.4586 212,83.5C 213.209,89.8859 212.209,95.8859 209,101.5C 206.531,103.652 203.698,105.152 200.5,106C 194.509,106.499 188.509,106.666 182.5,106.5C 182.5,95.5 182.5,84.5 182.5,73.5C 188.5,73.5 194.5,73.5 200.5,73.5 Z"/></g>
<g><path style="opacity:1" fill="#ebcec4" d="M 497.5,71.5 C 496.89,72.391 496.557,73.391 496.5,74.5C 482.685,82.0168 469.685,80.8502 457.5,71C 451.833,70.6667 446.167,70.3333 440.5,70C 436.184,67.5255 433.184,64.0255 431.5,59.5C 434.889,59.3679 438.223,59.2012 441.5,59C 441.833,59.3333 442.167,59.6667 442.5,60C 439.314,60.2579 437.314,61.9246 436.5,65C 439.224,66.4288 441.891,67.9288 444.5,69.5C 446.976,68.771 449.476,68.1043 452,67.5C 452.945,67.0946 453.612,66.428 454,65.5C 454.333,65.8333 454.667,66.1667 455,66.5C 456.655,66.1976 457.988,64.8642 459,62.5C 460.705,63.7633 462.372,64.0966 464,63.5C 464.492,64.549 464.326,65.549 463.5,66.5C 464.684,68.0461 465.684,69.7127 466.5,71.5C 476.855,76.7276 487.188,76.7276 497.5,71.5 Z"/></g>
<g><path style="opacity:1" fill="#48191c" d="M 232.5,98.5 C 235.385,98.1936 238.052,98.5269 240.5,99.5C 237.143,105.863 231.81,108.363 224.5,107C 216.778,103.728 213.612,97.8951 215,89.5C 217.686,81.5706 223.186,78.404 231.5,80C 238.964,82.4144 242.297,87.5811 241.5,95.5C 235.833,95.5 230.167,95.5 224.5,95.5C 225.518,100.757 228.184,101.757 232.5,98.5 Z"/></g>
<g><path style="opacity:1" fill="#46161a" d="M 92.5,79.5 C 99.7723,77.9799 105.606,79.9799 110,85.5C 110.5,92.4921 110.666,99.4921 110.5,106.5C 107.5,106.5 104.5,106.5 101.5,106.5C 101.719,105.325 101.386,104.325 100.5,103.5C 95.6424,107.458 90.8091,107.458 86,103.5C 83.1571,98.3506 84.3238,94.5172 89.5,92C 93.4183,90.8436 97.4183,90.3436 101.5,90.5C 101.923,87.7569 100.756,86.4235 98,86.5C 94.0236,88.5515 89.8569,88.8848 85.5,87.5C 87.1691,84.1697 89.5025,81.5031 92.5,79.5 Z"/></g>
<g><path style="opacity:1" fill="#48191d" d="M 119.5,79.5 C 125.097,78.8022 130.264,79.8022 135,82.5C 136.559,84.2166 137.392,86.2166 137.5,88.5C 132.532,88.5195 127.865,87.6862 123.5,86C 122.167,87 122.167,88 123.5,89C 128.209,89.5683 132.542,91.0683 136.5,93.5C 139.084,99.5305 137.418,103.697 131.5,106C 127.167,106.667 122.833,106.667 118.5,106C 115.203,104.537 113.203,102.037 112.5,98.5C 116.261,96.9161 119.594,97.4161 122.5,100C 124.579,100.808 126.579,100.641 128.5,99.5C 123.591,97.5188 118.758,95.1855 114,92.5C 113.333,89.8333 113.333,87.1667 114,84.5C 115.73,82.5981 117.563,80.9314 119.5,79.5 Z"/></g>
<g><path style="opacity:1" fill="#46161a" d="M 251.5,79.5 C 258.772,77.9799 264.606,79.9799 269,85.5C 269.5,92.4921 269.666,99.4921 269.5,106.5C 266.5,106.5 263.5,106.5 260.5,106.5C 260.719,105.325 260.386,104.325 259.5,103.5C 254.642,107.458 249.809,107.458 245,103.5C 242.157,98.3506 243.324,94.5172 248.5,92C 252.418,90.8436 256.418,90.3436 260.5,90.5C 260.923,87.7569 259.756,86.4235 257,86.5C 253.024,88.5515 248.857,88.8848 244.5,87.5C 246.169,84.1697 248.502,81.5031 251.5,79.5 Z"/></g>
<g><path style="opacity:1" fill="#48191d" d="M 293.5,79.5 C 299.097,78.8022 304.264,79.8022 309,82.5C 310.559,84.2166 311.392,86.2166 311.5,88.5C 306.532,88.5195 301.865,87.6862 297.5,86C 296.167,87 296.167,88 297.5,89C 302.209,89.5683 306.542,91.0683 310.5,93.5C 313.084,99.5305 311.418,103.697 305.5,106C 301.167,106.667 296.833,106.667 292.5,106C 289.203,104.537 287.203,102.037 286.5,98.5C 290.261,96.9161 293.594,97.4161 296.5,100C 298.579,100.808 300.579,100.641 302.5,99.5C 297.591,97.5188 292.758,95.1855 288,92.5C 287.333,89.8333 287.333,87.1667 288,84.5C 289.73,82.5981 291.563,80.9314 293.5,79.5 Z"/></g>
<g><path style="opacity:1" fill="#f2cbc1" d="M 191.5,80.5 C 200.671,80.1754 204.171,84.5088 202,93.5C 199.939,97.9814 196.439,99.6481 191.5,98.5C 191.5,92.5 191.5,86.5 191.5,80.5 Z"/></g>
<g><path style="opacity:1" fill="#a55a46" d="M 550.5,85.5 C 546.254,84.5352 542.087,84.2019 538,84.5C 534,85.1694 531.167,87.3361 529.5,91C 530.559,95.1059 530.559,98.9393 529.5,102.5C 527.5,102.5 525.5,102.5 523.5,102.5C 523.082,101.778 522.416,101.278 521.5,101C 523.797,97.3068 523.463,94.1401 520.5,91.5C 519.152,93.4613 517.819,93.6279 516.5,92C 518.056,91.2798 519.056,90.1132 519.5,88.5C 521.199,88.6602 522.866,88.4935 524.5,88C 523.619,87.2917 522.953,86.4584 522.5,85.5C 522.167,84.8333 521.833,84.1667 521.5,83.5C 523.557,79.933 526.223,76.7663 529.5,74C 534.837,69.5173 540.337,69.3507 546,73.5C 548.354,77.2023 549.854,81.2023 550.5,85.5 Z"/></g>
<g><path style="opacity:1" fill="#fef8f5" d="M 654.5,104.5 C 653.883,104.611 653.383,104.944 653,105.5C 652.529,103.754 651.862,102.087 651,100.5C 650.586,100.957 650.086,101.291 649.5,101.5C 643.582,99.6375 637.749,97.6375 632,95.5C 631.667,95.8333 631.333,96.1667 631,96.5C 627.57,95.0004 624.07,93.5004 620.5,92C 619.225,89.0837 618.559,86.2503 618.5,83.5C 615.791,81.4443 613.124,79.4443 610.5,77.5C 612.071,74.7687 614.405,72.9354 617.5,72C 625.417,70.0521 632.25,71.8855 638,77.5C 640.989,73.5094 644.822,70.676 649.5,69C 665.315,68.6495 672.982,76.4828 672.5,92.5C 676.951,95.398 679.951,99.398 681.5,104.5C 689.125,106.122 692.458,110.789 691.5,118.5C 689.09,117.617 686.757,116.45 684.5,115C 681.854,114.503 679.187,114.336 676.5,114.5C 676.316,111.81 675.816,109.143 675,106.5C 674.586,106.957 674.086,107.291 673.5,107.5C 670.167,106.5 666.833,105.5 663.5,104.5C 660.769,105.286 658.269,104.619 656,102.5C 655.283,103.044 654.783,103.711 654.5,104.5 Z"/></g>
<g><path style="opacity:1" fill="#99795a" d="M 496.5,74.5 C 498.167,74.5 499.833,74.5 501.5,74.5C 508.019,78.9277 515.019,82.5944 522.5,85.5C 522.953,86.4584 523.619,87.2917 524.5,88C 522.866,88.4935 521.199,88.6602 519.5,88.5C 519.167,88.5 518.833,88.5 518.5,88.5C 518.027,87.0937 517.027,86.427 515.5,86.5C 510.068,84.2848 504.735,81.7848 499.5,79C 497.859,77.871 496.859,76.371 496.5,74.5 Z"/></g>
<g><path style="opacity:1" fill="#b68b87" d="M 55.5,80.5 C 55.5,82.5 55.5,84.5 55.5,86.5C 59.7016,86.1832 63.7016,86.5166 67.5,87.5C 63.1667,87.5 58.8333,87.5 54.5,87.5C 54.1984,84.9407 54.5318,82.6074 55.5,80.5 Z"/></g>
<g><path style="opacity:1" fill="#e6beb6" d="M 225.5,86.5 C 228.596,85.9066 230.929,86.9066 232.5,89.5C 229.914,90.48 227.247,90.8134 224.5,90.5C 224.433,89.0413 224.766,87.7079 225.5,86.5 Z"/></g>
<g><path style="opacity:1" fill="#f9eb73" d="M 469.5,99.5 C 469.621,100.843 467.288,101.01 462.5,100C 452.942,97.2556 443.276,95.089 433.5,93.5C 430.272,92.4544 426.939,91.7878 423.5,91.5C 425.375,90.3631 428.042,90.1964 431.5,91C 444.103,94.1508 456.769,96.9841 469.5,99.5 Z"/></g>
<g><path style="opacity:1" fill="#9b4835" d="M 550.5,85.5 C 550.5,88.8333 550.5,92.1667 550.5,95.5C 543.235,98.6808 540.069,104.347 541,112.5C 537.561,117.112 533.394,117.778 528.5,114.5C 532.335,113.9 536.001,112.566 539.5,110.5C 540.256,108.549 540.589,106.716 540.5,105C 539.552,104.517 538.552,104.351 537.5,104.5C 534.885,103.709 532.218,103.043 529.5,102.5C 530.559,98.9393 530.559,95.1059 529.5,91C 531.167,87.3361 534,85.1694 538,84.5C 542.087,84.2019 546.254,84.5352 550.5,85.5 Z"/></g>
<g><path style="opacity:1" fill="#efaa2e" d="M 478.5,92.5 C 479.066,94.0783 480.066,95.4116 481.5,96.5C 484.107,97.1369 486.44,98.3035 488.5,100C 490.473,100.495 492.473,100.662 494.5,100.5C 497.09,101.128 499.423,102.295 501.5,104C 500.207,104.49 498.873,104.657 497.5,104.5C 495.22,102.777 492.553,102.111 489.5,102.5C 487.533,102.261 485.699,102.594 484,103.5C 483.498,106.513 482.998,109.513 482.5,112.5C 475.471,109.433 468.471,106.267 461.5,103C 459.527,102.505 457.527,102.338 455.5,102.5C 452.833,102.167 450.167,101.833 447.5,101.5C 447.586,100.504 447.252,99.6708 446.5,99C 442.067,97.1089 437.734,95.2756 433.5,93.5C 443.276,95.089 452.942,97.2556 462.5,100C 467.288,101.01 469.621,100.843 469.5,99.5C 470.403,96.6085 470.736,93.6085 470.5,90.5C 473.167,91.1667 475.833,91.8333 478.5,92.5 Z"/></g>
<g><path style="opacity:1" fill="#c0775f" d="M 518.5,88.5 C 518.833,88.5 519.167,88.5 519.5,88.5C 519.056,90.1132 518.056,91.2798 516.5,92C 517.819,93.6279 519.152,93.4613 520.5,91.5C 523.463,94.1401 523.797,97.3068 521.5,101C 522.416,101.278 523.082,101.778 523.5,102.5C 521.326,102.75 519.659,103.75 518.5,105.5C 517.115,104.426 515.949,103.093 515,101.5C 514.667,102.167 514.333,102.833 514,103.5C 514.152,100.553 514.319,97.553 514.5,94.5C 515.057,91.9501 516.39,89.9501 518.5,88.5 Z"/></g>
<g><path style="opacity:1" fill="#e2bbb2" d="M 95.5,95.5 C 97.5,95.5 99.5,95.5 101.5,95.5C 101.487,98.6951 99.8202,100.362 96.5,100.5C 92.8724,99.5645 92.5391,97.8978 95.5,95.5 Z"/></g>
<g><path style="opacity:1" fill="#e2bbb2" d="M 254.5,95.5 C 256.5,95.5 258.5,95.5 260.5,95.5C 260.487,98.6951 258.82,100.362 255.5,100.5C 251.872,99.5645 251.539,97.8978 254.5,95.5 Z"/></g>
<g><path style="opacity:1" fill="#bd802e" d="M 423.5,91.5 C 426.939,91.7878 430.272,92.4544 433.5,93.5C 437.734,95.2756 442.067,97.1089 446.5,99C 447.252,99.6708 447.586,100.504 447.5,101.5C 445.447,101.598 443.78,100.931 442.5,99.5C 441.22,98.0687 439.553,97.4021 437.5,97.5C 432.522,96.0684 427.856,94.0684 423.5,91.5 Z"/></g>
<g><path style="opacity:1" fill="#9d716e" d="M 232.5,98.5 C 235.355,97.1968 238.355,97.1968 241.5,98.5C 241.376,99.1067 241.043,99.44 240.5,99.5C 238.052,98.5269 235.385,98.1936 232.5,98.5 Z"/></g>
<g><path style="opacity:1" fill="#7d5935" d="M 437.5,97.5 C 439.553,97.4021 441.22,98.0687 442.5,99.5C 440.447,99.5979 438.78,98.9313 437.5,97.5 Z"/></g>
<g><path style="opacity:1" fill="#fdd03a" d="M 478.5,92.5 C 484.151,94.6588 489.484,97.3255 494.5,100.5C 492.473,100.662 490.473,100.495 488.5,100C 486.44,98.3035 484.107,97.1369 481.5,96.5C 480.066,95.4116 479.066,94.0783 478.5,92.5 Z"/></g>
<g><path style="opacity:1" fill="#fef4f1" d="M 602.5,89.5 C 603.873,89.3433 605.207,89.51 606.5,90C 607.667,91.8333 609.167,93.3333 611,94.5C 611.147,100.444 611.981,106.277 613.5,112C 613.37,113.059 612.87,113.892 612,114.5C 610.197,114.906 608.364,114.406 606.5,113C 605.638,110.266 604.805,110.099 604,112.5C 600.678,109.756 601.178,107.589 605.5,106C 604.299,105.097 603.465,103.931 603,102.5C 599.125,104.048 595.625,103.381 592.5,100.5C 591.5,101 590.5,101.5 589.5,102C 590.424,102.85 590.424,103.85 589.5,105C 590.744,107.382 592.577,109.215 595,110.5C 596.036,112.299 596.203,113.966 595.5,115.5C 588.65,113.461 581.983,111.128 575.5,108.5C 576.122,107.373 576.955,106.373 578,105.5C 580.704,91.9809 588.871,86.6476 602.5,89.5 Z"/></g>
<g><path style="opacity:1" fill="#fde7e2" d="M 610.5,77.5 C 613.124,79.4443 615.791,81.4443 618.5,83.5C 618.559,86.2503 619.225,89.0837 620.5,92C 624.07,93.5004 627.57,95.0004 631,96.5C 631.333,96.1667 631.667,95.8333 632,95.5C 637.749,97.6375 643.582,99.6375 649.5,101.5C 650.086,101.291 650.586,100.957 651,100.5C 651.862,102.087 652.529,103.754 653,105.5C 653.383,104.944 653.883,104.611 654.5,104.5C 654.579,105.93 654.246,107.264 653.5,108.5C 650.035,109.626 647.035,108.793 644.5,106C 636.119,105.042 627.786,103.875 619.5,102.5C 618.833,102.833 618.167,103.167 617.5,103.5C 616.851,105.624 616.017,107.624 615,109.5C 614.26,110.749 614.427,111.749 615.5,112.5C 615.796,119.225 613.129,120.891 607.5,117.5C 605.805,118.174 604.138,118.841 602.5,119.5C 600.33,117.914 597.996,116.58 595.5,115.5C 596.203,113.966 596.036,112.299 595,110.5C 592.577,109.215 590.744,107.382 589.5,105C 590.424,103.85 590.424,102.85 589.5,102C 590.5,101.5 591.5,101 592.5,100.5C 595.625,103.381 599.125,104.048 603,102.5C 603.465,103.931 604.299,105.097 605.5,106C 601.178,107.589 600.678,109.756 604,112.5C 604.805,110.099 605.638,110.266 606.5,113C 608.364,114.406 610.197,114.906 612,114.5C 612.87,113.892 613.37,113.059 613.5,112C 611.981,106.277 611.147,100.444 611,94.5C 609.167,93.3333 607.667,91.8333 606.5,90C 605.207,89.51 603.873,89.3433 602.5,89.5C 603.209,88.596 604.209,88.2627 605.5,88.5C 605.846,84.1476 607.512,80.4809 610.5,77.5 Z"/></g>
<g><path style="opacity:1" fill="#966328" d="M 447.5,101.5 C 450.167,101.833 452.833,102.167 455.5,102.5C 456.833,103.833 458.167,105.167 459.5,106.5C 455.203,105.345 451.203,103.679 447.5,101.5 Z"/></g>
<g><path style="opacity:1" fill="#ab7e5b" d="M 489.5,102.5 C 492.553,102.111 495.22,102.777 497.5,104.5C 494.572,104.435 491.905,103.768 489.5,102.5 Z"/></g>
<g><path style="opacity:1" fill="#f2bda4" d="M 574.5,108.5 C 574.5,109.5 574.5,110.5 574.5,111.5C 574.5,113.833 574.5,116.167 574.5,118.5C 570.565,116.079 566.731,113.412 563,110.5C 559.339,106.842 557.005,102.509 556,97.5C 555.147,101.469 554.481,105.469 554,109.5C 553,110.833 552,112.167 551,113.5C 550.501,109.848 550.335,106.182 550.5,102.5C 550.5,101.5 550.5,100.5 550.5,99.5C 551.486,95.03 551.819,90.3633 551.5,85.5C 552.321,88.6414 552.821,91.9748 553,95.5C 554.623,93.2966 555.457,90.7966 555.5,88C 554.797,85.1711 554.63,82.3378 555,79.5C 559.165,88.9897 564.165,97.9897 570,106.5C 571.47,107.267 572.97,107.933 574.5,108.5 Z"/></g>
<g><path style="opacity:1" fill="#97622a" d="M 459.5,106.5 C 462.577,106.179 464.91,107.179 466.5,109.5C 463.843,109.065 461.509,108.065 459.5,106.5 Z"/></g>
<g><path style="opacity:1" fill="#dda893" d="M 515.5,86.5 C 517.027,86.427 518.027,87.0937 518.5,88.5C 516.39,89.9501 515.057,91.9501 514.5,94.5C 512.172,98.4202 510.839,102.754 510.5,107.5C 509.918,110.272 508.918,112.939 507.5,115.5C 506.246,119.774 505.579,124.274 505.5,129C 506.597,136.764 508.597,144.264 511.5,151.5C 510.5,150.833 509.5,150.167 508.5,149.5C 506.554,147.266 505.387,144.599 505,141.5C 503.259,122.138 506.759,103.805 515.5,86.5 Z"/></g>
<g><path style="opacity:1" fill="#db9329" d="M 455.5,102.5 C 457.527,102.338 459.527,102.505 461.5,103C 468.471,106.267 475.471,109.433 482.5,112.5C 482.179,114.048 481.179,114.715 479.5,114.5C 475.72,111.385 471.387,109.718 466.5,109.5C 464.91,107.179 462.577,106.179 459.5,106.5C 458.167,105.167 456.833,103.833 455.5,102.5 Z"/></g>
<g><path style="opacity:1" fill="#da9d85" d="M 574.5,118.5 C 574.5,120.167 574.5,121.833 574.5,123.5C 569.737,122.539 565.071,121.372 560.5,120C 558.246,118.623 556.08,117.123 554,115.5C 551.211,117.727 548.878,120.393 547,123.5C 547.135,121.575 547.302,119.575 547.5,117.5C 548.139,112.304 549.139,107.304 550.5,102.5C 550.335,106.182 550.501,109.848 551,113.5C 552,112.167 553,110.833 554,109.5C 554.481,105.469 555.147,101.469 556,97.5C 557.005,102.509 559.339,106.842 563,110.5C 566.731,113.412 570.565,116.079 574.5,118.5 Z"/></g>
<g><path style="opacity:1" fill="#a56a2b" d="M 466.5,109.5 C 471.387,109.718 475.72,111.385 479.5,114.5C 474.777,113.63 470.444,111.964 466.5,109.5 Z"/></g>
<g><path style="opacity:1" fill="#fddfc8" d="M 574.5,108.5 C 574.833,108.5 575.167,108.5 575.5,108.5C 581.983,111.128 588.65,113.461 595.5,115.5C 597.996,116.58 600.33,117.914 602.5,119.5C 603.5,121.5 604.5,123.5 605.5,125.5C 605.083,126.124 604.416,126.457 603.5,126.5C 600.855,125.892 598.188,125.392 595.5,125C 596.5,124.667 597.5,124.333 598.5,124C 595.866,120.383 592.866,119.883 589.5,122.5C 584.929,121.661 580.595,120.328 576.5,118.5C 576.279,115.933 575.612,113.599 574.5,111.5C 574.5,110.5 574.5,109.5 574.5,108.5 Z"/></g>
<g><path style="opacity:1" fill="#edc6ba" d="M 679.5,120.5 C 675.169,121.549 673.003,119.882 673,115.5C 672.25,114.874 671.416,114.374 670.5,114C 665.626,113.516 660.96,112.683 656.5,111.5C 656.435,113.696 655.768,115.696 654.5,117.5C 645.969,112.859 636.969,111.026 627.5,112C 627,111.5 626.5,111 626,110.5C 624.461,118.801 627.961,123.135 636.5,123.5C 639.177,122.926 641.843,122.259 644.5,121.5C 644.919,120.328 645.585,119.328 646.5,118.5C 647.698,121.198 649.698,123.031 652.5,124C 654.846,123.208 657.179,123.375 659.5,124.5C 651.632,124.632 643.632,124.632 635.5,124.5C 631.586,124.384 627.919,123.384 624.5,121.5C 623.287,121.747 622.62,122.414 622.5,123.5C 621.761,123.631 621.094,123.464 620.5,123C 621.554,121.612 621.72,120.112 621,118.5C 619.331,117.154 618.164,115.487 617.5,113.5C 617.953,108.848 620.62,106.515 625.5,106.5C 631.515,107.224 637.515,108.057 643.5,109C 646.445,111.489 649.445,113.322 652.5,114.5C 653.318,112.892 653.985,111.225 654.5,109.5C 656.437,108.842 658.27,108.509 660,108.5C 664.196,109.105 668.363,109.938 672.5,111C 674.121,113.166 674.955,115.666 675,118.5C 676.622,119.099 678.122,119.766 679.5,120.5 Z"/></g>
<g><path style="opacity:1" fill="#deb7a8" d="M 679.5,120.5 C 681.734,119.78 683.901,119.447 686,119.5C 687.169,120.009 688.002,120.842 688.5,122C 686.831,124.085 684.664,125.251 682,125.5C 679.176,124.946 676.343,124.446 673.5,124C 672.027,123.29 671.36,122.124 671.5,120.5C 668.813,120.336 666.146,120.503 663.5,121C 661.676,121.66 660.343,122.827 659.5,124.5C 657.179,123.375 654.846,123.208 652.5,124C 649.698,123.031 647.698,121.198 646.5,118.5C 645.585,119.328 644.919,120.328 644.5,121.5C 641.843,122.259 639.177,122.926 636.5,123.5C 627.961,123.135 624.461,118.801 626,110.5C 626.5,111 627,111.5 627.5,112C 636.969,111.026 645.969,112.859 654.5,117.5C 655.768,115.696 656.435,113.696 656.5,111.5C 660.96,112.683 665.626,113.516 670.5,114C 671.416,114.374 672.25,114.874 673,115.5C 673.003,119.882 675.169,121.549 679.5,120.5 Z"/></g>
<g><path style="opacity:1" fill="#943a27" d="M 550.5,95.5 C 550.5,96.8333 550.5,98.1667 550.5,99.5C 550.5,100.5 550.5,101.5 550.5,102.5C 549.139,107.304 548.139,112.304 547.5,117.5C 546.129,119.936 545.129,122.603 544.5,125.5C 539.304,124.435 534.304,122.768 529.5,120.5C 526.189,118.66 525.856,116.66 528.5,114.5C 533.394,117.778 537.561,117.112 541,112.5C 540.069,104.347 543.235,98.6808 550.5,95.5 Z"/></g>
<g><path style="opacity:1" fill="#f2bca3" d="M 576.5,118.5 C 580.595,120.328 584.929,121.661 589.5,122.5C 592.866,119.883 595.866,120.383 598.5,124C 597.5,124.333 596.5,124.667 595.5,125C 598.188,125.392 600.855,125.892 603.5,126.5C 604.416,126.457 605.083,126.124 605.5,125.5C 606.404,126.209 606.737,127.209 606.5,128.5C 606.795,130.735 606.461,132.735 605.5,134.5C 605.294,132.451 604.461,132.117 603,133.5C 599.611,132.071 596.111,130.904 592.5,130C 600.501,130.238 600.335,129.072 592,126.5C 591,127.167 590,127.833 589,128.5C 584.744,126.902 580.577,125.236 576.5,123.5C 576.5,121.833 576.5,120.167 576.5,118.5 Z"/></g>
<g><path style="opacity:1" fill="#c88b74" d="M 574.5,123.5 C 573.756,125.453 572.256,126.453 570,126.5C 563.775,126.44 557.942,125.106 552.5,122.5C 551.052,124.667 549.885,127 549,129.5C 547.676,128.12 546.343,127.786 545,128.5C 542.11,134.991 538.277,140.657 533.5,145.5C 533.5,144.833 533.5,144.167 533.5,143.5C 534.833,142.833 535.833,141.833 536.5,140.5C 539.421,135.659 542.088,130.659 544.5,125.5C 545.129,122.603 546.129,119.936 547.5,117.5C 547.302,119.575 547.135,121.575 547,123.5C 548.878,120.393 551.211,117.727 554,115.5C 556.08,117.123 558.246,118.623 560.5,120C 565.071,121.372 569.737,122.539 574.5,123.5 Z"/></g>
<g><path style="opacity:1" fill="#dbb3a5" d="M 615.5,112.5 C 616.492,112.328 617.158,112.662 617.5,113.5C 618.164,115.487 619.331,117.154 621,118.5C 621.72,120.112 621.554,121.612 620.5,123C 621.094,123.464 621.761,123.631 622.5,123.5C 624.297,124.73 626.297,125.396 628.5,125.5C 628.108,129.391 625.941,131.391 622,131.5C 617.98,131.759 616.647,130.092 618,126.5C 614.581,129.479 610.748,130.146 606.5,128.5C 606.737,127.209 606.404,126.209 605.5,125.5C 604.5,123.5 603.5,121.5 602.5,119.5C 604.138,118.841 605.805,118.174 607.5,117.5C 613.129,120.891 615.796,119.225 615.5,112.5 Z"/></g>
<g><path style="opacity:1" fill="#995e4c" d="M 574.5,111.5 C 575.612,113.599 576.279,115.933 576.5,118.5C 576.5,120.167 576.5,121.833 576.5,123.5C 575.694,124.997 575.028,126.664 574.5,128.5C 574.709,129.086 575.043,129.586 575.5,130C 581.999,132.09 588.499,132.923 595,132.5C 595.374,133.416 595.874,134.25 596.5,135C 594.623,135.576 592.789,135.409 591,134.5C 589.278,134.611 589.112,135.111 590.5,136C 593.903,136.578 597.07,137.745 600,139.5C 601.041,137.689 602.207,137.355 603.5,138.5C 601.268,141.451 598.268,143.118 594.5,143.5C 591.251,142.749 588.085,141.749 585,140.5C 582.042,141.859 578.876,142.526 575.5,142.5C 574.942,141.21 573.942,140.377 572.5,140C 569.081,139.479 565.748,138.645 562.5,137.5C 549.875,141.805 538.542,148.139 528.5,156.5C 519.854,160.613 513.188,158.613 508.5,150.5C 508.5,150.167 508.5,149.833 508.5,149.5C 509.5,150.167 510.5,150.833 511.5,151.5C 511.574,153.411 512.574,154.578 514.5,155C 517.741,155.793 520.741,155.293 523.5,153.5C 524.552,153.649 525.552,153.483 526.5,153C 527.39,150.609 529.057,149.109 531.5,148.5C 532.401,147.71 533.068,146.71 533.5,145.5C 538.277,140.657 542.11,134.991 545,128.5C 546.343,127.786 547.676,128.12 549,129.5C 549.885,127 551.052,124.667 552.5,122.5C 557.942,125.106 563.775,126.44 570,126.5C 572.256,126.453 573.756,125.453 574.5,123.5C 574.5,121.833 574.5,120.167 574.5,118.5C 574.5,116.167 574.5,113.833 574.5,111.5 Z"/></g>
<g><path style="opacity:1" fill="#4a1b1e" d="M 270.5,130.5 C 271.825,134.276 272.491,138.443 272.5,143C 272.167,147.167 271.833,151.333 271.5,155.5C 270.502,147.193 270.169,138.86 270.5,130.5 Z"/></g>
<g><path style="opacity:1" fill="#4f2023" d="M 389.5,130.5 C 390.825,134.276 391.491,138.443 391.5,143C 391.167,147.167 390.833,151.333 390.5,155.5C 389.749,154.624 389.249,153.624 389,152.5C 383.956,156.826 379.622,156.16 376,150.5C 374.631,145.563 375.797,141.396 379.5,138C 383.274,136.817 386.441,137.651 389,140.5C 389.498,137.183 389.665,133.85 389.5,130.5 Z"/></g>
<g><path style="opacity:1" fill="#dc947a" d="M 514.5,94.5 C 514.319,97.553 514.152,100.553 514,103.5C 514.333,102.833 514.667,102.167 515,101.5C 515.949,103.093 517.115,104.426 518.5,105.5C 518.33,106.822 518.663,107.989 519.5,109C 522.584,108.681 525.584,108.514 528.5,108.5C 528.833,106.5 529.167,104.5 529.5,102.5C 532.218,103.043 534.885,103.709 537.5,104.5C 537.872,107.923 536.539,110.423 533.5,112C 528.362,112.82 523.362,112.32 518.5,110.5C 517.435,114.162 518.768,116.829 522.5,118.5C 522.409,124.393 520.243,129.726 516,134.5C 514.621,138.475 515.787,141.309 519.5,143C 522.23,143.728 524.897,143.562 527.5,142.5C 528.5,143.167 529.5,143.833 530.5,144.5C 531.417,143.873 532.417,143.539 533.5,143.5C 533.5,144.167 533.5,144.833 533.5,145.5C 533.068,146.71 532.401,147.71 531.5,148.5C 529.782,147.776 527.948,147.109 526,146.5C 518.354,148.418 513.854,145.418 512.5,137.5C 514.734,132.765 516.734,127.932 518.5,123C 517.376,118.246 515.542,113.746 513,109.5C 512.71,111.044 512.044,112.377 511,113.5C 511.614,111.46 511.448,109.46 510.5,107.5C 510.839,102.754 512.172,98.4202 514.5,94.5 Z"/></g>
<g><path style="opacity:1" fill="#fcd4bd" d="M 523.5,102.5 C 525.5,102.5 527.5,102.5 529.5,102.5C 529.167,104.5 528.833,106.5 528.5,108.5C 525.584,108.514 522.584,108.681 519.5,109C 518.663,107.989 518.33,106.822 518.5,105.5C 519.659,103.75 521.326,102.75 523.5,102.5 Z"/></g>
<g><path style="opacity:1" fill="#5d2e2f" d="M 45.5,131.5 C 46.5,131.5 47.5,131.5 48.5,131.5C 48.5,138.833 48.5,146.167 48.5,153.5C 52.5546,153.176 56.5546,153.509 60.5,154.5C 55.544,155.494 50.544,155.827 45.5,155.5C 45.5,147.5 45.5,139.5 45.5,131.5 Z"/></g>
<g><path style="opacity:1" fill="#441419" d="M 187.5,131.5 C 189.337,131.639 189.67,132.306 188.5,133.5C 187.702,133.043 187.369,132.376 187.5,131.5 Z"/></g>
<g><path style="opacity:1" fill="#441419" d="M 237.5,131.5 C 239.337,131.639 239.67,132.306 238.5,133.5C 237.702,133.043 237.369,132.376 237.5,131.5 Z"/></g>
<g><path style="opacity:1" fill="#cb8e77" d="M 576.5,123.5 C 580.577,125.236 584.744,126.902 589,128.5C 590,127.833 591,127.167 592,126.5C 600.335,129.072 600.501,130.238 592.5,130C 596.111,130.904 599.611,132.071 603,133.5C 604.461,132.117 605.294,132.451 605.5,134.5C 605.34,136.153 604.674,137.486 603.5,138.5C 602.207,137.355 601.041,137.689 600,139.5C 597.07,137.745 593.903,136.578 590.5,136C 589.112,135.111 589.278,134.611 591,134.5C 592.789,135.409 594.623,135.576 596.5,135C 595.874,134.25 595.374,133.416 595,132.5C 588.499,132.923 581.999,132.09 575.5,130C 575.043,129.586 574.709,129.086 574.5,128.5C 575.028,126.664 575.694,124.997 576.5,123.5 Z"/></g>
<g><path style="opacity:1" fill="#ab5843" d="M 537.5,104.5 C 538.552,104.351 539.552,104.517 540.5,105C 540.589,106.716 540.256,108.549 539.5,110.5C 536.001,112.566 532.335,113.9 528.5,114.5C 525.856,116.66 526.189,118.66 529.5,120.5C 534.304,122.768 539.304,124.435 544.5,125.5C 542.088,130.659 539.421,135.659 536.5,140.5C 532.154,140.666 527.821,140.499 523.5,140C 522.445,136.742 523.445,134.076 526.5,132C 529.167,131.667 531.833,131.333 534.5,131C 536.037,129.89 536.703,128.39 536.5,126.5C 533.174,127.345 529.84,127.845 526.5,128C 525.346,127.086 525.513,126.253 527,125.5C 528.512,121.202 527.012,118.869 522.5,118.5C 518.768,116.829 517.435,114.162 518.5,110.5C 523.362,112.32 528.362,112.82 533.5,112C 536.539,110.423 537.872,107.923 537.5,104.5 Z"/></g>
<g><path style="opacity:1" fill="#4c1c1f" d="M 141.5,133.5 C 143.176,134.183 143.843,135.517 143.5,137.5C 148.833,138.167 148.833,138.833 143.5,139.5C 143.334,143.846 143.501,148.179 144,152.5C 145.205,153.071 146.372,153.738 147.5,154.5C 145.389,155.848 143.555,155.515 142,153.5C 141.501,148.845 141.334,144.179 141.5,139.5C 137.5,138.833 137.5,138.167 141.5,137.5C 141.5,136.167 141.5,134.833 141.5,133.5 Z"/></g>
<g><path style="opacity:1" fill="#4c1c1f" d="M 311.5,133.5 C 313.176,134.183 313.843,135.517 313.5,137.5C 318.833,138.167 318.833,138.833 313.5,139.5C 313.334,143.846 313.501,148.179 314,152.5C 315.205,153.071 316.372,153.738 317.5,154.5C 315.389,155.848 313.555,155.515 312,153.5C 311.501,148.845 311.334,144.179 311.5,139.5C 307.5,138.833 307.5,138.167 311.5,137.5C 311.5,136.167 311.5,134.833 311.5,133.5 Z"/></g>
<g><path style="opacity:1" fill="#e9a68b" d="M 510.5,107.5 C 511.448,109.46 511.614,111.46 511,113.5C 512.044,112.377 512.71,111.044 513,109.5C 515.542,113.746 517.376,118.246 518.5,123C 516.734,127.932 514.734,132.765 512.5,137.5C 513.854,145.418 518.354,148.418 526,146.5C 527.948,147.109 529.782,147.776 531.5,148.5C 529.057,149.109 527.39,150.609 526.5,153C 525.552,153.483 524.552,153.649 523.5,153.5C 523.918,152.778 524.584,152.278 525.5,152C 522.137,148.747 518.303,147.914 514,149.5C 512.615,148.449 511.615,147.116 511,145.5C 508.783,139.437 508.283,133.27 509.5,127C 507.863,124.087 507.196,120.253 507.5,115.5C 508.918,112.939 509.918,110.272 510.5,107.5 Z"/></g>
<g><path style="opacity:1" fill="#572729" d="M 354.5,130.5 C 359.534,130.439 363.034,132.773 365,137.5C 366.702,144.245 365.202,150.078 360.5,155C 354.85,156.758 351.017,154.924 349,149.5C 348.174,144.411 348.508,139.411 350,134.5C 351.397,132.93 352.897,131.596 354.5,130.5 Z"/></g>
<g><path style="opacity:1" fill="#f5cec4" d="M 353.5,133.5 C 361.955,133.696 365.122,138.029 363,146.5C 362.218,152.295 359.051,154.462 353.5,153C 349.54,146.463 349.54,139.963 353.5,133.5 Z"/></g>
<g><path style="opacity:1" fill="#441419" d="M 177.5,137.5 C 178.75,137.577 179.583,138.244 180,139.5C 181.555,137.485 183.389,137.152 185.5,138.5C 183.433,139.134 181.6,140.134 180,141.5C 179.828,146.202 179.328,150.868 178.5,155.5C 177.504,149.537 177.171,143.537 177.5,137.5 Z"/></g>
<g><path style="opacity:1" fill="#4a1b1e" d="M 187.5,137.5 C 188.816,140.087 189.483,143.087 189.5,146.5C 189.167,149.5 188.833,152.5 188.5,155.5C 187.504,149.537 187.171,143.537 187.5,137.5 Z"/></g>
<g><path style="opacity:1" fill="#4a1b1e" d="M 237.5,137.5 C 238.816,140.087 239.483,143.087 239.5,146.5C 239.167,149.5 238.833,152.5 238.5,155.5C 237.504,149.537 237.171,143.537 237.5,137.5 Z"/></g>
<g><path style="opacity:1" fill="#592a2c" d="M 244.5,137.5 C 245.931,137.881 246.764,138.881 247,140.5C 250.137,136.952 253.637,136.619 257.5,139.5C 259.333,144.638 260,149.972 259.5,155.5C 258.5,155.5 257.5,155.5 256.5,155.5C 256.666,150.821 256.499,146.155 256,141.5C 252.706,138.689 249.706,139.022 247,142.5C 246.828,146.871 246.328,151.204 245.5,155.5C 244.504,149.537 244.171,143.537 244.5,137.5 Z"/></g>
<g><path style="opacity:1" fill="#fad4c9" d="M 575.5,142.5 C 574.833,142.5 574.5,142.833 574.5,143.5C 574.049,147.411 574.049,151.244 574.5,155C 573.136,161.59 571.469,168.09 569.5,174.5C 568.833,175.167 568.167,175.833 567.5,176.5C 565.909,175.781 564.409,174.781 563,173.5C 562.164,177.373 561.331,181.207 560.5,185C 560.957,185.414 561.291,185.914 561.5,186.5C 559.971,187.763 558.305,188.763 556.5,189.5C 556.596,187.404 556.596,185.237 556.5,183C 560.71,178.853 561.543,174.02 559,168.5C 557.961,167.29 556.794,166.29 555.5,165.5C 550.829,161.046 545.162,158.713 538.5,158.5C 536.833,158.5 535.167,158.5 533.5,158.5C 532.178,158.33 531.011,158.663 530,159.5C 529.768,158.263 529.268,157.263 528.5,156.5C 538.542,148.139 549.875,141.805 562.5,137.5C 565.748,138.645 569.081,139.479 572.5,140C 573.942,140.377 574.942,141.21 575.5,142.5 Z"/></g>
<g><path style="opacity:1" fill="#532326" d="M 127.5,137.5 C 130.602,137.154 133.435,137.821 136,139.5C 136.193,143.26 135.359,143.426 133.5,140C 131.5,139.333 129.5,139.333 127.5,140C 126.167,141.333 126.167,142.667 127.5,144C 130.89,145.125 134.057,146.625 137,148.5C 138.042,151.804 136.875,153.971 133.5,155C 129.01,156.374 125.677,155.041 123.5,151C 125.727,151.76 128.06,152.593 130.5,153.5C 132.922,153.743 134.588,152.743 135.5,150.5C 132.099,148.427 128.599,146.427 125,144.5C 123.916,141.341 124.75,139.008 127.5,137.5 Z"/></g>
<g><path style="opacity:1" fill="#542427" d="M 282.5,145.5 C 284.5,145.5 286.5,145.5 288.5,145.5C 288.768,143.901 288.434,142.568 287.5,141.5C 286.688,140.007 285.355,139.34 283.5,139.5C 281.063,139.598 279.063,140.598 277.5,142.5C 276.406,141.132 276.74,139.965 278.5,139C 282.714,136.731 286.547,137.231 290,140.5C 290.829,145.533 290.662,150.533 289.5,155.5C 288.749,154.624 288.249,153.624 288,152.5C 283.925,156.41 279.925,156.41 276,152.5C 275.509,147.821 277.675,145.488 282.5,145.5 Z"/></g>
<g><path style="opacity:1" fill="#532326" d="M 297.5,137.5 C 300.602,137.154 303.435,137.821 306,139.5C 306.193,143.26 305.359,143.426 303.5,140C 301.5,139.333 299.5,139.333 297.5,140C 296.167,141.333 296.167,142.667 297.5,144C 300.89,145.125 304.057,146.625 307,148.5C 308.042,151.804 306.875,153.971 303.5,155C 299.01,156.374 295.677,155.041 293.5,151C 295.727,151.76 298.06,152.593 300.5,153.5C 302.922,153.743 304.588,152.743 305.5,150.5C 302.099,148.427 298.599,146.427 295,144.5C 293.916,141.341 294.75,139.008 297.5,137.5 Z"/></g>
<g><path style="opacity:1" fill="#f6d0c5" d="M 380.5,139.5 C 387.745,138.963 390.578,142.296 389,149.5C 386.127,154.408 382.794,154.741 379,150.5C 378.013,146.525 378.513,142.859 380.5,139.5 Z"/></g>
<g><path style="opacity:1" fill="#542427" d="M 401.5,145.5 C 403.5,145.5 405.5,145.5 407.5,145.5C 407.768,143.901 407.434,142.568 406.5,141.5C 405.688,140.007 404.355,139.34 402.5,139.5C 400.063,139.598 398.063,140.598 396.5,142.5C 395.406,141.132 395.74,139.965 397.5,139C 401.714,136.731 405.547,137.231 409,140.5C 409.829,145.533 409.662,150.533 408.5,155.5C 407.749,154.624 407.249,153.624 407,152.5C 402.925,156.41 398.925,156.41 395,152.5C 394.509,147.821 396.675,145.488 401.5,145.5 Z"/></g>
<g><path style="opacity:1" fill="#532326" d="M 432.5,137.5 C 435.602,137.154 438.435,137.821 441,139.5C 441.193,143.26 440.359,143.426 438.5,140C 436.5,139.333 434.5,139.333 432.5,140C 431.167,141.333 431.167,142.667 432.5,144C 435.89,145.125 439.057,146.625 442,148.5C 443.042,151.804 441.875,153.971 438.5,155C 434.01,156.374 430.677,155.041 428.5,151C 430.727,151.76 433.06,152.593 435.5,153.5C 437.922,153.743 439.588,152.743 440.5,150.5C 437.099,148.427 433.599,146.427 430,144.5C 428.916,141.341 429.75,139.008 432.5,137.5 Z"/></g>
<g><path style="opacity:1" fill="#512224" d="M 121.5,146.5 C 116.833,146.5 112.167,146.5 107.5,146.5C 107.263,147.791 107.596,148.791 108.5,149.5C 109.828,153.254 112.494,154.421 116.5,153C 121.19,150.036 121.523,150.702 117.5,155C 108.117,156.107 104.283,151.94 106,142.5C 108.435,137.776 112.269,136.276 117.5,138C 120.321,140.141 121.654,142.975 121.5,146.5 Z"/></g>
<g><path style="opacity:1" fill="#f5cfc5" d="M 118.5,142.5 C 117.306,143.777 115.64,144.444 113.5,144.5C 111.631,144.493 109.964,144.16 108.5,143.5C 109.828,139.746 112.494,138.579 116.5,140C 117.381,140.708 118.047,141.542 118.5,142.5 Z"/></g>
<g><path style="opacity:1" fill="#4d1d21" d="M 157.5,137.5 C 158.931,137.881 159.764,138.881 160,140.5C 167.675,135.108 172.175,137.108 173.5,146.5C 173.19,153.642 169.523,156.475 162.5,155C 161.667,154.167 160.833,153.333 160,152.5C 159.821,155.553 159.321,158.553 158.5,161.5C 157.502,153.528 157.169,145.528 157.5,137.5 Z"/></g>
<g><path style="opacity:1" fill="#f0cac0" d="M 162.5,139.5 C 169.745,138.963 172.578,142.296 171,149.5C 169.309,153.213 166.475,154.379 162.5,153C 158.555,148.503 158.555,144.003 162.5,139.5 Z"/></g>
<g><path style="opacity:1" fill="#512224" d="M 226.5,146.5 C 221.833,146.5 217.167,146.5 212.5,146.5C 212.263,147.791 212.596,148.791 213.5,149.5C 214.828,153.254 217.494,154.421 221.5,153C 226.19,150.036 226.523,150.702 222.5,155C 213.117,156.107 209.283,151.94 211,142.5C 213.435,137.776 217.269,136.276 222.5,138C 225.321,140.141 226.654,142.975 226.5,146.5 Z"/></g>
<g><path style="opacity:1" fill="#f5cfc5" d="M 223.5,142.5 C 222.306,143.777 220.64,144.444 218.5,144.5C 216.631,144.493 214.964,144.16 213.5,143.5C 214.828,139.746 217.494,138.579 221.5,140C 222.381,140.708 223.047,141.542 223.5,142.5 Z"/></g>
<g><path style="opacity:1" fill="#fae7a5" d="M 669.5,141.5 C 666.159,142.005 662.826,142.172 659.5,142C 658.137,140.055 657.303,137.888 657,135.5C 656.849,138.119 656.015,140.453 654.5,142.5C 654.167,142.167 653.833,141.833 653.5,141.5C 654.785,138.979 655.452,136.313 655.5,133.5C 655.897,132.475 656.563,132.308 657.5,133C 658.833,134.667 660.167,136.333 661.5,138C 663.833,138.333 666.167,138.667 668.5,139C 669.252,139.671 669.586,140.504 669.5,141.5 Z"/></g>
<g><path style="opacity:1" fill="#c77a62" d="M 522.5,118.5 C 527.012,118.869 528.512,121.202 527,125.5C 525.513,126.253 525.346,127.086 526.5,128C 529.84,127.845 533.174,127.345 536.5,126.5C 536.703,128.39 536.037,129.89 534.5,131C 531.833,131.333 529.167,131.667 526.5,132C 523.445,134.076 522.445,136.742 523.5,140C 527.821,140.499 532.154,140.666 536.5,140.5C 535.833,141.833 534.833,142.833 533.5,143.5C 532.417,143.539 531.417,143.873 530.5,144.5C 529.5,143.833 528.5,143.167 527.5,142.5C 524.897,143.562 522.23,143.728 519.5,143C 515.787,141.309 514.621,138.475 516,134.5C 520.243,129.726 522.409,124.393 522.5,118.5 Z"/></g>
<g><path style="opacity:1" fill="#f3c642" d="M 655.5,133.5 C 655.452,136.313 654.785,138.979 653.5,141.5C 653.833,141.833 654.167,142.167 654.5,142.5C 656.015,140.453 656.849,138.119 657,135.5C 657.303,137.888 658.137,140.055 659.5,142C 662.826,142.172 666.159,142.005 669.5,141.5C 665.631,144.775 664.631,148.775 666.5,153.5C 665.222,153.218 664.222,152.551 663.5,151.5C 662.224,149.413 660.724,147.413 659,145.5C 658.667,146.5 658.333,147.5 658,148.5C 655.71,144.471 652.543,143.138 648.5,144.5C 647.833,144.5 647.167,144.5 646.5,144.5C 645.224,143.614 645.224,142.614 646.5,141.5C 648.5,140.833 650.5,140.167 652.5,139.5C 653.518,137.406 654.518,135.406 655.5,133.5 Z"/></g>
<g><path style="opacity:1" fill="#af8481" d="M 118.5,142.5 C 119.404,143.209 119.737,144.209 119.5,145.5C 115.445,145.824 111.445,145.491 107.5,144.5C 107.624,143.893 107.957,143.56 108.5,143.5C 109.964,144.16 111.631,144.493 113.5,144.5C 115.64,144.444 117.306,143.777 118.5,142.5 Z"/></g>
<g><path style="opacity:1" fill="#af8481" d="M 223.5,142.5 C 224.404,143.209 224.737,144.209 224.5,145.5C 220.445,145.824 216.445,145.491 212.5,144.5C 212.624,143.893 212.957,143.56 213.5,143.5C 214.964,144.16 216.631,144.493 218.5,144.5C 220.64,144.444 222.306,143.777 223.5,142.5 Z"/></g>
<g><path style="opacity:1" fill="#a07472" d="M 287.5,141.5 C 288.434,142.568 288.768,143.901 288.5,145.5C 286.5,145.5 284.5,145.5 282.5,145.5C 283.919,144.549 285.585,144.216 287.5,144.5C 287.5,143.5 287.5,142.5 287.5,141.5 Z"/></g>
<g><path style="opacity:1" fill="#a07472" d="M 406.5,141.5 C 407.434,142.568 407.768,143.901 407.5,145.5C 405.5,145.5 403.5,145.5 401.5,145.5C 402.919,144.549 404.585,144.216 406.5,144.5C 406.5,143.5 406.5,142.5 406.5,141.5 Z"/></g>
<g><path style="opacity:1" fill="#976c69" d="M 121.5,146.5 C 116.906,146.865 112.573,147.865 108.5,149.5C 107.596,148.791 107.263,147.791 107.5,146.5C 112.167,146.5 116.833,146.5 121.5,146.5 Z"/></g>
<g><path style="opacity:1" fill="#976c69" d="M 226.5,146.5 C 221.906,146.865 217.573,147.865 213.5,149.5C 212.596,148.791 212.263,147.791 212.5,146.5C 217.167,146.5 221.833,146.5 226.5,146.5 Z"/></g>
<g><path style="opacity:1" fill="#a67a77" d="M 281.5,147.5 C 283.607,146.532 285.941,146.198 288.5,146.5C 288.737,147.791 288.404,148.791 287.5,149.5C 286.082,147.692 284.082,147.025 281.5,147.5 Z"/></g>
<g><path style="opacity:1" fill="#a67a77" d="M 400.5,147.5 C 402.607,146.532 404.941,146.198 407.5,146.5C 407.737,147.791 407.404,148.791 406.5,149.5C 405.082,147.692 403.082,147.025 400.5,147.5 Z"/></g>
<g><path style="opacity:1" fill="#f6d0c5" d="M 281.5,147.5 C 284.082,147.025 286.082,147.692 287.5,149.5C 286.172,153.254 283.506,154.421 279.5,153C 277.82,150.189 278.487,148.356 281.5,147.5 Z"/></g>
<g><path style="opacity:1" fill="#f6d0c5" d="M 400.5,147.5 C 403.082,147.025 405.082,147.692 406.5,149.5C 405.172,153.254 402.506,154.421 398.5,153C 396.82,150.189 397.487,148.356 400.5,147.5 Z"/></g>
<g><path style="opacity:1" fill="#f6ab0c" d="M 648.5,144.5 C 652.543,143.138 655.71,144.471 658,148.5C 658.333,147.5 658.667,146.5 659,145.5C 660.724,147.413 662.224,149.413 663.5,151.5C 659.151,149.536 655.651,150.536 653,154.5C 652.977,151.949 653.477,149.449 654.5,147C 652.593,145.878 650.593,145.045 648.5,144.5 Z"/></g>
<g><path style="opacity:1" fill="#e3a489" d="M 594.5,143.5 C 593.791,144.404 592.791,144.737 591.5,144.5C 590.71,152.39 589.377,160.057 587.5,167.5C 585.289,171.285 581.956,173.618 577.5,174.5C 576.488,177.338 574.488,178.671 571.5,178.5C 569.833,178.5 568.167,178.5 566.5,178.5C 566.328,177.508 566.662,176.842 567.5,176.5C 568.167,175.833 568.833,175.167 569.5,174.5C 572.605,168.38 575.272,162.047 577.5,155.5C 575.213,152.424 574.88,149.091 576.5,145.5C 576.253,144.287 575.586,143.62 574.5,143.5C 574.5,142.833 574.833,142.5 575.5,142.5C 578.876,142.526 582.042,141.859 585,140.5C 588.085,141.749 591.251,142.749 594.5,143.5 Z"/></g>
<g><path style="opacity:1" fill="#f5bfa4" d="M 581.5,146.5 C 583.833,146.5 586.167,146.5 588.5,146.5C 587.979,150.861 587.312,155.194 586.5,159.5C 584.344,161.009 582.01,162.009 579.5,162.5C 579.313,164.564 578.813,166.564 578,168.5C 578.191,160.956 579.358,153.622 581.5,146.5 Z"/></g>
<g><path style="opacity:1" fill="#532427" d="M 66.5,137.5 C 75.649,137.156 79.149,141.489 77,150.5C 74.9276,155.143 71.4276,156.643 66.5,155C 61.8451,152.103 60.3451,147.937 62,142.5C 63.0591,140.341 64.5591,138.674 66.5,137.5 Z"/></g>
<g><path style="opacity:1" fill="#f3ccc2" d="M 66.5,139.5 C 74.3223,139.166 77.1556,142.833 75,150.5C 70.8372,154.747 67.1705,154.414 64,149.5C 63.0239,145.673 63.8572,142.34 66.5,139.5 Z"/></g>
<g><path style="opacity:1" fill="#58292b" d="M 198.5,137.5 C 202.849,136.577 206.183,137.91 208.5,141.5C 208.167,141.833 207.833,142.167 207.5,142.5C 198.427,137.043 194.927,139.71 197,150.5C 200.413,154.462 203.913,154.462 207.5,150.5C 208.188,152.718 207.188,154.218 204.5,155C 199.726,156.361 196.226,154.861 194,150.5C 192.379,144.923 193.879,140.589 198.5,137.5 Z"/></g>
<g><path style="opacity:1" fill="#562729" d="M 333.5,131.5 C 338.158,130.514 341.824,131.848 344.5,135.5C 342.877,136.476 341.543,135.976 340.5,134C 333.235,132.265 330.069,135.098 331,142.5C 336.395,138.066 341.062,138.733 345,144.5C 345.983,153.182 342.15,156.682 333.5,155C 331.185,153.891 329.685,152.057 329,149.5C 328.333,145.5 328.333,141.5 329,137.5C 329.804,134.854 331.304,132.854 333.5,131.5 Z"/></g>
<g><path style="opacity:1" fill="#f6d0c5" d="M 334.5,141.5 C 341.798,141.638 344.132,145.138 341.5,152C 333.923,155.09 330.756,152.59 332,144.5C 333.045,143.627 333.878,142.627 334.5,141.5 Z"/></g>
<g><path style="opacity:1" fill="#feef48" d="M 502.5,145.5 C 498.47,150.53 493.804,154.863 488.5,158.5C 488.167,158.5 487.833,158.5 487.5,158.5C 486.833,158.5 486.5,158.167 486.5,157.5C 490.301,153.527 493.968,149.36 497.5,145C 498.872,144.598 500.205,144.098 501.5,143.5C 502.298,143.957 502.631,144.624 502.5,145.5 Z"/></g>
<g><path style="opacity:1" fill="#9f5f4c" d="M 574.5,143.5 C 575.586,143.62 576.253,144.287 576.5,145.5C 574.88,149.091 575.213,152.424 577.5,155.5C 575.272,162.047 572.605,168.38 569.5,174.5C 571.469,168.09 573.136,161.59 574.5,155C 574.049,151.244 574.049,147.411 574.5,143.5 Z"/></g>
<g><path style="opacity:1" fill="#f3b99f" d="M 507.5,115.5 C 507.196,120.253 507.863,124.087 509.5,127C 508.283,133.27 508.783,139.437 511,145.5C 511.615,147.116 512.615,148.449 514,149.5C 518.303,147.914 522.137,148.747 525.5,152C 524.584,152.278 523.918,152.778 523.5,153.5C 520.741,155.293 517.741,155.793 514.5,155C 512.574,154.578 511.574,153.411 511.5,151.5C 508.597,144.264 506.597,136.764 505.5,129C 505.579,124.274 506.246,119.774 507.5,115.5 Z"/></g>
<g><path style="opacity:1" fill="#fefcf9" d="M 698.5,205.5 C 698.631,206.376 698.298,207.043 697.5,207.5C 692.852,203.222 687.685,202.888 682,206.5C 679.976,204.642 677.809,202.975 675.5,201.5C 673.939,202.347 672.439,202.014 671,200.5C 669.708,201.791 668.542,201.791 667.5,200.5C 669.413,197.938 669.413,195.605 667.5,193.5C 667.709,192.914 668.043,192.414 668.5,192C 667.333,191.5 666.5,190.667 666,189.5C 664.657,190.214 663.324,189.88 662,188.5C 660.391,189.147 658.891,189.98 657.5,191C 655.559,191.743 653.726,191.576 652,190.5C 651.333,191.167 650.667,191.833 650,192.5C 645.988,189.16 641.988,185.827 638,182.5C 632.589,183.615 627.089,184.448 621.5,185C 617.445,190.005 615.945,189.172 617,182.5C 619.869,179.296 623.035,176.463 626.5,174C 625.061,173.009 624.061,171.676 623.5,170C 622.234,169.691 621.067,169.191 620,168.5C 617.812,166.305 615.979,163.805 614.5,161C 612.888,160.28 611.388,160.446 610,161.5C 608.333,160.5 606.667,159.5 605,158.5C 603.103,160.016 600.936,160.683 598.5,160.5C 599.625,158.871 600.959,157.371 602.5,156C 619.324,147.551 632.657,151.384 642.5,167.5C 645.583,168.542 648.75,169.208 652,169.5C 677.658,161.649 691.658,170.982 694,197.5C 696.284,199.736 697.784,202.402 698.5,205.5 Z"/></g>
<g><path style="opacity:1" fill="#552628" d="M 80.5,137.5 C 81.4972,137.47 82.1639,137.97 82.5,139C 84.0577,143.398 85.2244,147.898 86,152.5C 87.5354,148.227 88.8688,143.894 90,139.5C 90.7096,138.027 91.8762,137.36 93.5,137.5C 94.4264,141.947 95.7598,146.28 97.5,150.5C 98.9815,146.049 100.648,141.716 102.5,137.5C 102.833,138 103.167,138.5 103.5,139C 101.922,144.144 100.422,149.311 99,154.5C 98.1072,155.711 97.2739,155.711 96.5,154.5C 95.063,150.155 93.563,145.821 92,141.5C 90.0083,145.976 88.5083,150.643 87.5,155.5C 86.5,155.5 85.5,155.5 84.5,155.5C 83.3734,149.454 82.0401,143.454 80.5,137.5 Z"/></g>
<g><path style="opacity:1" fill="#502124" d="M 412.5,137.5 C 413.75,137.577 414.583,138.244 415,139.5C 416.414,143.984 418.081,148.317 420,152.5C 421.81,147.571 423.31,142.571 424.5,137.5C 425.552,137.351 426.552,137.517 427.5,138C 424.671,145.15 421.838,152.316 419,159.5C 417.445,161.515 415.611,161.848 413.5,160.5C 416.19,159.81 417.857,158.143 418.5,155.5C 416.293,149.544 414.293,143.544 412.5,137.5 Z"/></g>
<g><path style="opacity:1" fill="#f89b3b" d="M 646.5,144.5 C 647.167,144.5 647.833,144.5 648.5,144.5C 650.593,145.045 652.593,145.878 654.5,147C 653.477,149.449 652.977,151.949 653,154.5C 655.651,150.536 659.151,149.536 663.5,151.5C 664.222,152.551 665.222,153.218 666.5,153.5C 664.332,154.63 661.998,154.63 659.5,153.5C 656.644,155.044 653.644,156.044 650.5,156.5C 650.665,153.482 650.498,150.482 650,147.5C 648.482,146.837 647.315,145.837 646.5,144.5 Z"/></g>
<g><path style="opacity:1" fill="#995a26" d="M 487.5,158.5 C 487.833,158.5 488.167,158.5 488.5,158.5C 493.453,159.316 498.286,160.65 503,162.5C 504.03,162.836 504.53,163.503 504.5,164.5C 502.938,164.733 501.605,165.4 500.5,166.5C 500.719,165.325 500.386,164.325 499.5,163.5C 495.237,162.198 491.237,160.531 487.5,158.5 Z"/></g>
<g><path style="opacity:1" fill="#e2b6a5" d="M 538.5,158.5 C 545.162,158.713 550.829,161.046 555.5,165.5C 558.17,177.33 553.504,182.164 541.5,180C 538.811,177.305 535.811,174.972 532.5,173C 530.807,166.581 532.807,161.748 538.5,158.5 Z"/></g>
<g><path style="opacity:1" fill="#f4b433" d="M 502.5,145.5 C 501.532,148.445 501.366,151.445 502,154.5C 502.708,155.381 503.542,156.047 504.5,156.5C 508.013,158.757 511.347,161.257 514.5,164C 514.022,165.303 513.355,166.469 512.5,167.5C 510.42,169.573 508.754,171.907 507.5,174.5C 506.167,175.167 505.167,176.167 504.5,177.5C 502.863,179.475 501.196,181.475 499.5,183.5C 498.833,183.5 498.167,183.5 497.5,183.5C 499.59,177.004 501.923,170.671 504.5,164.5C 504.53,163.503 504.03,162.836 503,162.5C 498.286,160.65 493.453,159.316 488.5,158.5C 493.804,154.863 498.47,150.53 502.5,145.5 Z"/></g>
<g><path style="opacity:1" fill="#fcebe5" d="M 486.5,157.5 C 486.5,158.167 486.833,158.5 487.5,158.5C 491.237,160.531 495.237,162.198 499.5,163.5C 500.386,164.325 500.719,165.325 500.5,166.5C 497.773,172.954 494.773,179.288 491.5,185.5C 487.694,177.565 482.027,175.898 474.5,180.5C 474.21,176.064 474.71,171.73 476,167.5C 478.075,162.59 481.575,159.257 486.5,157.5 Z"/></g>
<g><path style="opacity:1" fill="#fdf7f4" d="M 507.5,174.5 C 508.754,171.907 510.42,169.573 512.5,167.5C 514.727,167.273 517.06,167.273 519.5,167.5C 518.577,170.447 517.911,173.447 517.5,176.5C 516.5,176.5 515.5,176.5 514.5,176.5C 514.567,178.401 514.233,180.234 513.5,182C 515.742,185.105 515.909,188.272 514,191.5C 511.8,189.747 510.633,187.414 510.5,184.5C 513.883,179.655 512.883,176.322 507.5,174.5 Z"/></g>
<g><path style="opacity:1" fill="#d9a088" d="M 539.5,162.5 C 546.099,161.456 550.433,163.956 552.5,170C 552.01,171.982 551.01,173.649 549.5,175C 544.587,176.154 540.421,174.987 537,171.5C 536.131,168.007 536.964,165.007 539.5,162.5 Z"/></g>
<g><path style="opacity:1" fill="#cc7a5c" d="M 587.5,167.5 C 587.041,170.877 586.374,174.211 585.5,177.5C 583.45,179.547 581.117,181.214 578.5,182.5C 576.125,181.098 573.791,179.765 571.5,178.5C 574.488,178.671 576.488,177.338 577.5,174.5C 581.956,173.618 585.289,171.285 587.5,167.5 Z"/></g>
<g><path style="opacity:1" fill="#fef9f6" d="M 491.5,185.5 C 491.5,186.167 491.5,186.833 491.5,187.5C 492.976,189.23 492.642,190.563 490.5,191.5C 485.694,189.974 480.86,188.641 476,187.5C 471.738,192.201 467.238,192.534 462.5,188.5C 460.139,189.269 458.139,188.603 456.5,186.5C 457.343,184.827 458.676,183.66 460.5,183C 464.5,182.667 468.5,182.333 472.5,182C 473.044,181.283 473.711,180.783 474.5,180.5C 482.027,175.898 487.694,177.565 491.5,185.5 Z"/></g>
<g><path style="opacity:1" fill="#fce23f" d="M 504.5,164.5 C 501.923,170.671 499.59,177.004 497.5,183.5C 496.512,184.795 495.512,186.128 494.5,187.5C 494.167,187.5 493.833,187.5 493.5,187.5C 492.833,187.5 492.167,187.5 491.5,187.5C 491.5,186.833 491.5,186.167 491.5,185.5C 494.773,179.288 497.773,172.954 500.5,166.5C 501.605,165.4 502.938,164.733 504.5,164.5 Z"/></g>
<g><path style="opacity:1" fill="#a87836" d="M 497.5,183.5 C 498.167,183.5 498.833,183.5 499.5,183.5C 498.415,185.587 496.749,186.92 494.5,187.5C 495.512,186.128 496.512,184.795 497.5,183.5 Z"/></g>
<g><path style="opacity:1" fill="#fdf6f2" d="M 667.5,200.5 C 666.519,198.691 665.019,197.357 663,196.5C 661.333,196.833 659.667,197.167 658,197.5C 657.405,193.918 656.071,193.584 654,196.5C 652.915,195.707 651.748,195.04 650.5,194.5C 647.394,194.06 644.227,194.06 641,194.5C 638.737,192.409 636.07,191.076 633,190.5C 628.287,190.664 623.454,191.331 618.5,192.5C 618.62,195.205 617.62,195.872 615.5,194.5C 614.573,196.113 613.739,197.779 613,199.5C 610.003,198.134 606.836,197.467 603.5,197.5C 603.5,196.5 603.5,195.5 603.5,194.5C 600.266,193.74 597.099,192.74 594,191.5C 592.295,192.763 590.628,193.097 589,192.5C 587.482,193.163 586.315,194.163 585.5,195.5C 583.459,195.854 581.626,195.854 580,195.5C 579.517,196.448 579.351,197.448 579.5,198.5C 577.876,198.36 576.71,199.027 576,200.5C 573.534,200.434 571.034,200.434 568.5,200.5C 566.941,199.926 565.441,199.26 564,198.5C 563.667,198.833 563.333,199.167 563,199.5C 559.392,198.055 556.559,195.721 554.5,192.5C 555.167,191.5 555.833,190.5 556.5,189.5C 558.305,188.763 559.971,187.763 561.5,186.5C 561.291,185.914 560.957,185.414 560.5,185C 561.331,181.207 562.164,177.373 563,173.5C 564.409,174.781 565.909,175.781 567.5,176.5C 566.662,176.842 566.328,177.508 566.5,178.5C 568.687,183.168 572.353,185.001 577.5,184C 578.056,183.617 578.389,183.117 578.5,182.5C 581.117,181.214 583.45,179.547 585.5,177.5C 587.582,177.528 589.416,176.861 591,175.5C 591.944,169.611 594.444,164.611 598.5,160.5C 600.936,160.683 603.103,160.016 605,158.5C 606.667,159.5 608.333,160.5 610,161.5C 611.388,160.446 612.888,160.28 614.5,161C 615.979,163.805 617.812,166.305 620,168.5C 621.067,169.191 622.234,169.691 623.5,170C 624.061,171.676 625.061,173.009 626.5,174C 623.035,176.463 619.869,179.296 617,182.5C 615.945,189.172 617.445,190.005 621.5,185C 627.089,184.448 632.589,183.615 638,182.5C 641.988,185.827 645.988,189.16 650,192.5C 650.667,191.833 651.333,191.167 652,190.5C 653.726,191.576 655.559,191.743 657.5,191C 658.891,189.98 660.391,189.147 662,188.5C 663.324,189.88 664.657,190.214 666,189.5C 666.5,190.667 667.333,191.5 668.5,192C 668.043,192.414 667.709,192.914 667.5,193.5C 669.413,195.605 669.413,197.938 667.5,200.5 Z"/></g>
<g><path style="opacity:1" fill="#8e4a36" d="M 566.5,178.5 C 568.167,178.5 569.833,178.5 571.5,178.5C 573.791,179.765 576.125,181.098 578.5,182.5C 578.389,183.117 578.056,183.617 577.5,184C 572.353,185.001 568.687,183.168 566.5,178.5 Z"/></g>
<g><path style="opacity:1" fill="#fbe3dc" d="M 508.5,150.5 C 513.188,158.613 519.854,160.613 528.5,156.5C 529.268,157.263 529.768,158.263 530,159.5C 531.011,158.663 532.178,158.33 533.5,158.5C 532.585,160.754 531.252,162.754 529.5,164.5C 528.645,166.608 527.978,168.774 527.5,171C 528.463,175.752 530.463,179.919 533.5,183.5C 533.471,185.029 532.804,186.196 531.5,187C 533.929,187.451 534.096,188.285 532,189.5C 529.421,187.653 526.588,187.153 523.5,188C 522.636,189.697 521.303,190.863 519.5,191.5C 518.514,197.493 515.514,198.826 510.5,195.5C 507.857,195.804 505.024,196.47 502,197.5C 498.184,197.083 497.184,195.416 499,192.5C 501.635,191.527 503.635,189.86 505,187.5C 505.388,184.151 505.221,180.817 504.5,177.5C 505.167,176.167 506.167,175.167 507.5,174.5C 512.883,176.322 513.883,179.655 510.5,184.5C 510.633,187.414 511.8,189.747 514,191.5C 515.909,188.272 515.742,185.105 513.5,182C 514.233,180.234 514.567,178.401 514.5,176.5C 515.5,176.5 516.5,176.5 517.5,176.5C 517.911,173.447 518.577,170.447 519.5,167.5C 517.06,167.273 514.727,167.273 512.5,167.5C 513.355,166.469 514.022,165.303 514.5,164C 511.347,161.257 508.013,158.757 504.5,156.5C 504.684,153.663 506.018,151.663 508.5,150.5 Z"/></g>
<g><path style="opacity:1" fill="#feefeb" d="M 667.5,200.5 C 668.542,201.791 669.708,201.791 671,200.5C 672.439,202.014 673.939,202.347 675.5,201.5C 677.809,202.975 679.976,204.642 682,206.5C 687.685,202.888 692.852,203.222 697.5,207.5C 698.298,207.043 698.631,206.376 698.5,205.5C 699.477,208.287 699.81,211.287 699.5,214.5C 697.837,212.51 695.837,210.843 693.5,209.5C 682.27,209.213 671.436,206.546 661,201.5C 660.667,201.833 660.333,202.167 660,202.5C 657.688,202.045 655.688,201.045 654,199.5C 652.286,200.925 650.953,200.592 650,198.5C 647.568,199.293 645.234,199.626 643,199.5C 639.112,197.03 635.112,195.696 631,195.5C 628.139,196.921 625.139,197.921 622,198.5C 621.667,198.167 621.333,197.833 621,197.5C 617.695,199.008 614.529,200.008 611.5,200.5C 609.662,199.888 607.995,199.888 606.5,200.5C 603.368,197.728 599.868,196.728 596,197.5C 594.687,196.427 593.187,195.76 591.5,195.5C 589.597,196.353 587.597,196.353 585.5,195.5C 586.315,194.163 587.482,193.163 589,192.5C 590.628,193.097 592.295,192.763 594,191.5C 597.099,192.74 600.266,193.74 603.5,194.5C 603.5,195.5 603.5,196.5 603.5,197.5C 606.836,197.467 610.003,198.134 613,199.5C 613.739,197.779 614.573,196.113 615.5,194.5C 617.62,195.872 618.62,195.205 618.5,192.5C 623.454,191.331 628.287,190.664 633,190.5C 636.07,191.076 638.737,192.409 641,194.5C 644.227,194.06 647.394,194.06 650.5,194.5C 651.748,195.04 652.915,195.707 654,196.5C 656.071,193.584 657.405,193.918 658,197.5C 659.667,197.167 661.333,196.833 663,196.5C 665.019,197.357 666.519,198.691 667.5,200.5 Z"/></g>
<g><path style="opacity:1" fill="#fde6e1" d="M 554.5,192.5 C 556.559,195.721 559.392,198.055 563,199.5C 563.333,199.167 563.667,198.833 564,198.5C 565.441,199.26 566.941,199.926 568.5,200.5C 571.034,200.434 573.534,200.434 576,200.5C 576.71,199.027 577.876,198.36 579.5,198.5C 579.351,197.448 579.517,196.448 580,195.5C 581.626,195.854 583.459,195.854 585.5,195.5C 587.597,196.353 589.597,196.353 591.5,195.5C 593.187,195.76 594.687,196.427 596,197.5C 599.868,196.728 603.368,197.728 606.5,200.5C 607.995,199.888 609.662,199.888 611.5,200.5C 614.529,200.008 617.695,199.008 621,197.5C 621.333,197.833 621.667,198.167 622,198.5C 625.139,197.921 628.139,196.921 631,195.5C 635.112,195.696 639.112,197.03 643,199.5C 645.234,199.626 647.568,199.293 650,198.5C 650.953,200.592 652.286,200.925 654,199.5C 655.688,201.045 657.688,202.045 660,202.5C 660.333,202.167 660.667,201.833 661,201.5C 671.436,206.546 682.27,209.213 693.5,209.5C 695.837,210.843 697.837,212.51 699.5,214.5C 696.264,215.4 693.597,214.233 691.5,211C 687.597,209.762 683.763,209.596 680,210.5C 675.433,209.688 670.766,208.688 666,207.5C 664.674,207.755 663.674,208.422 663,209.5C 661.214,206.638 658.881,205.972 656,207.5C 655.581,206.328 654.915,205.328 654,204.5C 651.631,204.323 649.131,204.656 646.5,205.5C 641.344,203.152 636.178,201.819 631,201.5C 624.147,203.834 617.481,205.167 611,205.5C 608.029,204.505 605.029,203.505 602,202.5C 600.354,204.141 599.354,203.807 599,201.5C 595.333,201.5 591.667,201.5 588,201.5C 585.876,202.227 583.709,202.894 581.5,203.5C 580.914,203.291 580.414,202.957 580,202.5C 579.167,204 578,205.167 576.5,206C 572.615,205.872 568.782,206.039 565,206.5C 561.208,205.631 557.875,203.964 555,201.5C 554.127,201.735 553.293,202.069 552.5,202.5C 550.105,207.994 549.105,207.661 549.5,201.5C 549.833,200.167 550.167,198.833 550.5,197.5C 551.593,195.651 552.926,193.984 554.5,192.5 Z"/></g>
<g><path style="opacity:1" fill="#eec7bb" d="M 533.5,158.5 C 535.167,158.5 536.833,158.5 538.5,158.5C 532.807,161.748 530.807,166.581 532.5,173C 535.811,174.972 538.811,177.305 541.5,180C 553.504,182.164 558.17,177.33 555.5,165.5C 556.794,166.29 557.961,167.29 559,168.5C 561.543,174.02 560.71,178.853 556.5,183C 556.596,185.237 556.596,187.404 556.5,189.5C 555.833,190.5 555.167,191.5 554.5,192.5C 552.926,193.984 551.593,195.651 550.5,197.5C 548.552,196.869 546.719,195.869 545,194.5C 540.013,195.545 534.846,195.545 529.5,194.5C 526.458,194.425 524.791,195.925 524.5,199C 527.233,201.589 529.566,204.589 531.5,208C 533.556,208.311 535.556,208.811 537.5,209.5C 538.478,209.023 539.311,208.357 540,207.5C 542.781,207.729 545.614,207.729 548.5,207.5C 548.5,207.833 548.5,208.167 548.5,208.5C 547.23,210.611 545.23,211.611 542.5,211.5C 539.759,210.981 537.092,210.981 534.5,211.5C 531.96,210.598 529.46,209.598 527,208.5C 525.697,208.978 524.531,209.645 523.5,210.5C 521.517,210.157 520.183,210.824 519.5,212.5C 519.167,212.5 518.833,212.5 518.5,212.5C 515.735,212.396 512.735,212.229 509.5,212C 507.228,211.059 505.228,209.726 503.5,208C 501.08,207.71 498.746,207.21 496.5,206.5C 496.265,205.903 495.765,205.57 495,205.5C 487.854,209.102 480.687,209.269 473.5,206C 467.91,206.095 462.577,205.095 457.5,203C 456.57,201.806 455.903,200.473 455.5,199C 456.355,197.549 456.522,196.049 456,194.5C 465.756,195.32 475.59,195.82 485.5,196C 488.586,196.984 491.419,198.484 494,200.5C 495.827,196.112 495.66,191.779 493.5,187.5C 493.833,187.5 494.167,187.5 494.5,187.5C 496.749,186.92 498.415,185.587 499.5,183.5C 501.196,181.475 502.863,179.475 504.5,177.5C 505.221,180.817 505.388,184.151 505,187.5C 503.635,189.86 501.635,191.527 499,192.5C 497.184,195.416 498.184,197.083 502,197.5C 505.024,196.47 507.857,195.804 510.5,195.5C 515.514,198.826 518.514,197.493 519.5,191.5C 521.303,190.863 522.636,189.697 523.5,188C 526.588,187.153 529.421,187.653 532,189.5C 534.096,188.285 533.929,187.451 531.5,187C 532.804,186.196 533.471,185.029 533.5,183.5C 530.463,179.919 528.463,175.752 527.5,171C 527.978,168.774 528.645,166.608 529.5,164.5C 531.252,162.754 532.585,160.754 533.5,158.5 Z"/></g>
<g><path style="opacity:1" fill="#f6ded7" d="M 456.5,186.5 C 458.139,188.603 460.139,189.269 462.5,188.5C 467.238,192.534 471.738,192.201 476,187.5C 480.86,188.641 485.694,189.974 490.5,191.5C 492.642,190.563 492.976,189.23 491.5,187.5C 492.167,187.5 492.833,187.5 493.5,187.5C 495.66,191.779 495.827,196.112 494,200.5C 491.419,198.484 488.586,196.984 485.5,196C 475.59,195.82 465.756,195.32 456,194.5C 456.522,196.049 456.355,197.549 455.5,199C 455.903,200.473 456.57,201.806 457.5,203C 462.577,205.095 467.91,206.095 473.5,206C 480.687,209.269 487.854,209.102 495,205.5C 495.765,205.57 496.265,205.903 496.5,206.5C 494.22,207.64 491.886,208.807 489.5,210C 487.5,210.167 485.5,210.333 483.5,210.5C 475.262,208.507 466.928,207.007 458.5,206C 451.615,199.92 450.949,193.42 456.5,186.5 Z"/></g>
<g><path style="opacity:1" fill="#dfb9ab" d="M 550.5,197.5 C 550.167,198.833 549.833,200.167 549.5,201.5C 548.539,203.265 548.205,205.265 548.5,207.5C 545.614,207.729 542.781,207.729 540,207.5C 539.311,208.357 538.478,209.023 537.5,209.5C 535.556,208.811 533.556,208.311 531.5,208C 529.566,204.589 527.233,201.589 524.5,199C 524.791,195.925 526.458,194.425 529.5,194.5C 534.846,195.545 540.013,195.545 545,194.5C 546.719,195.869 548.552,196.869 550.5,197.5 Z"/></g>
<g><path style="opacity:1" fill="#fbd5ca" d="M 627.5,239.5 C 593.5,239.5 559.5,239.5 525.5,239.5C 526.492,237.974 527.992,237.307 530,237.5C 532.016,237.74 534.016,238.074 536,238.5C 537.376,238.316 538.209,237.649 538.5,236.5C 538.5,236.167 538.5,235.833 538.5,235.5C 538.193,232.72 537.193,230.22 535.5,228C 536.725,225.054 538.058,222.22 539.5,219.5C 540.774,218.811 540.774,217.977 539.5,217C 535.787,216.595 532.121,216.595 528.5,217C 526.959,215.629 525.625,214.129 524.5,212.5C 524.5,212.167 524.5,211.833 524.5,211.5C 525.117,211.389 525.617,211.056 526,210.5C 533.333,214.06 540.833,214.393 548.5,211.5C 554.194,226.765 565.027,232.432 581,228.5C 586.836,230.414 592.836,231.414 599,231.5C 604.511,231.018 610.011,230.852 615.5,231C 619.125,234.474 623.125,237.307 627.5,239.5 Z"/></g>
<g><path style="opacity:1" fill="#efc7ba" d="M 694.5,216.5 C 694.785,218.288 694.452,219.955 693.5,221.5C 692.784,220.689 691.95,220.022 691,219.5C 685.156,219.291 679.156,219.624 673,220.5C 670.888,219.777 668.888,218.777 667,217.5C 664.914,217.919 663.414,219.086 662.5,221C 656.15,221.665 649.984,220.832 644,218.5C 641,219.167 638,219.833 635,220.5C 634.228,220.355 633.561,220.022 633,219.5C 631.738,221.303 630.071,222.636 628,223.5C 627.392,225.154 626.892,226.821 626.5,228.5C 624.9,229.512 623.566,229.012 622.5,227C 620.567,226.749 618.734,226.249 617,225.5C 609.078,227.148 600.912,227.648 592.5,227C 590.13,225.815 587.797,224.649 585.5,223.5C 582.824,223.939 580.491,224.939 578.5,226.5C 575.936,226.979 573.436,227.645 571,228.5C 568.619,227.565 566.119,227.232 563.5,227.5C 563.719,226.325 563.386,225.325 562.5,224.5C 559.346,222.61 556.679,220.277 554.5,217.5C 553.532,213.907 553.199,210.407 553.5,207C 554.416,206.626 555.25,206.126 556,205.5C 556.419,206.672 557.085,207.672 558,208.5C 559.343,207.786 560.676,208.12 562,209.5C 566.347,208.295 571.013,208.295 576,209.5C 579.009,207.997 582.175,206.997 585.5,206.5C 592.186,207.184 598.852,208.017 605.5,209C 606,209.5 606.5,210 607,210.5C 609.572,209.308 612.239,208.308 615,207.5C 620.616,210.358 626.616,210.692 633,208.5C 637.918,209.373 643.085,210.373 648.5,211.5C 651.551,210.931 654.384,210.597 657,210.5C 659.465,212.425 662.132,212.425 665,210.5C 667.366,214.662 670.366,215.328 674,212.5C 675.923,213.316 677.923,213.983 680,214.5C 685.016,212.781 689.849,213.447 694.5,216.5 Z"/></g>
<g><path style="opacity:1" fill="#e5bcad" d="M 559.5,211.5 C 560.473,212.791 561.473,212.791 562.5,211.5C 563.167,212.167 563.833,212.833 564.5,213.5C 567.468,212.632 570.301,212.299 573,212.5C 573.388,213.428 574.055,214.095 575,214.5C 576.845,213.244 578.845,212.244 581,211.5C 583.78,211.576 586.613,211.576 589.5,211.5C 591.452,213.533 593.618,213.866 596,212.5C 600.14,213.443 604.307,214.443 608.5,215.5C 614.723,211.69 617.556,213.357 617,220.5C 616.086,216.815 615.419,217.148 615,221.5C 612.796,223.017 610.462,224.35 608,225.5C 604.495,224.69 600.995,225.024 597.5,226.5C 595.118,224.929 592.451,224.096 589.5,224C 589.002,222.842 588.169,222.009 587,221.5C 583.188,222.751 579.022,223.751 574.5,224.5C 567.564,224.996 561.898,222.663 557.5,217.5C 556.691,215.929 556.357,214.262 556.5,212.5C 557.791,212.737 558.791,212.404 559.5,211.5 Z"/></g>
<g><path style="opacity:1" fill="#f6e47d" d="M 524.5,212.5 C 525.625,214.129 526.959,215.629 528.5,217C 532.121,216.595 535.787,216.595 539.5,217C 540.774,217.977 540.774,218.811 539.5,219.5C 539.167,219.5 538.833,219.5 538.5,219.5C 538.631,218.624 538.298,217.957 537.5,217.5C 532.045,222.165 527.545,221.498 524,215.5C 523.26,214.251 523.427,213.251 524.5,212.5 Z"/></g>
<g><path style="opacity:1" fill="#f0dcd5" d="M 548.5,208.5 C 549.482,209.141 550.482,209.807 551.5,210.5C 551.974,213.217 552.974,215.55 554.5,217.5C 556.679,220.277 559.346,222.61 562.5,224.5C 563.386,225.325 563.719,226.325 563.5,227.5C 566.119,227.232 568.619,227.565 571,228.5C 573.436,227.645 575.936,226.979 578.5,226.5C 585.414,227.824 592.581,229.157 600,230.5C 605.615,229.591 610.948,228.591 616,227.5C 621.393,231.081 626.226,235.081 630.5,239.5C 629.5,239.5 628.5,239.5 627.5,239.5C 623.125,237.307 619.125,234.474 615.5,231C 610.011,230.852 604.511,231.018 599,231.5C 592.836,231.414 586.836,230.414 581,228.5C 565.027,232.432 554.194,226.765 548.5,211.5C 540.833,214.393 533.333,214.06 526,210.5C 525.617,211.056 525.117,211.389 524.5,211.5C 523.833,211.5 523.5,211.167 523.5,210.5C 524.531,209.645 525.697,208.978 527,208.5C 529.46,209.598 531.96,210.598 534.5,211.5C 537.092,210.981 539.759,210.981 542.5,211.5C 545.23,211.611 547.23,210.611 548.5,208.5 Z"/></g>
<g><path style="opacity:1" fill="#fceab4" d="M 523.5,210.5 C 523.5,211.167 523.833,211.5 524.5,211.5C 524.5,211.833 524.5,212.167 524.5,212.5C 523.427,213.251 523.26,214.251 524,215.5C 527.545,221.498 532.045,222.165 537.5,217.5C 538.298,217.957 538.631,218.624 538.5,219.5C 538.167,219.5 537.833,219.5 537.5,219.5C 535.407,220.045 533.407,220.878 531.5,222C 529.833,222.667 528.167,222.667 526.5,222C 524.623,219.749 523.123,217.249 522,214.5C 521.667,217.167 521.333,219.833 521,222.5C 520.292,223.381 519.458,224.047 518.5,224.5C 519.272,220.548 519.605,216.548 519.5,212.5C 520.183,210.824 521.517,210.157 523.5,210.5 Z"/></g>
<g><path style="opacity:1" fill="#f5bf44" d="M 518.5,212.5 C 518.833,212.5 519.167,212.5 519.5,212.5C 519.605,216.548 519.272,220.548 518.5,224.5C 515.219,224.42 512.219,225.087 509.5,226.5C 509.167,226.5 508.833,226.5 508.5,226.5C 508.414,225.504 508.748,224.671 509.5,224C 512.102,223.023 514.602,221.856 517,220.5C 518.079,217.937 518.579,215.271 518.5,212.5 Z"/></g>
<g><path style="opacity:1" fill="#f0cb4a" d="M 537.5,219.5 C 536.542,220.962 535.376,222.295 534,223.5C 533.51,224.793 533.343,226.127 533.5,227.5C 528.29,227.701 523.29,227.034 518.5,225.5C 518.5,225.167 518.5,224.833 518.5,224.5C 519.458,224.047 520.292,223.381 521,222.5C 521.333,219.833 521.667,217.167 522,214.5C 523.123,217.249 524.623,219.749 526.5,222C 528.167,222.667 529.833,222.667 531.5,222C 533.407,220.878 535.407,220.045 537.5,219.5 Z"/></g>
<g><path style="opacity:1" fill="#deb9ab" d="M 694.5,216.5 C 696.196,216.685 697.529,217.519 698.5,219C 697.027,222.631 694.694,225.464 691.5,227.5C 688.525,228.911 685.358,229.577 682,229.5C 677.022,227.837 671.856,227.337 666.5,228C 660.706,233.939 653.539,236.772 645,236.5C 642.135,236.395 639.301,236.062 636.5,235.5C 634.112,233.639 631.446,232.306 628.5,231.5C 627.575,230.643 626.908,229.643 626.5,228.5C 626.892,226.821 627.392,225.154 628,223.5C 630.071,222.636 631.738,221.303 633,219.5C 633.561,220.022 634.228,220.355 635,220.5C 638,219.833 641,219.167 644,218.5C 649.984,220.832 656.15,221.665 662.5,221C 663.414,219.086 664.914,217.919 667,217.5C 668.888,218.777 670.888,219.777 673,220.5C 679.156,219.624 685.156,219.291 691,219.5C 691.95,220.022 692.784,220.689 693.5,221.5C 694.452,219.955 694.785,218.288 694.5,216.5 Z"/></g>
<g><path style="opacity:1" fill="#fbdb91" d="M 518.5,224.5 C 518.5,224.833 518.5,225.167 518.5,225.5C 517.209,225.263 516.209,225.596 515.5,226.5C 513.5,226.5 511.5,226.5 509.5,226.5C 512.219,225.087 515.219,224.42 518.5,224.5 Z"/></g>
<g><path style="opacity:1" fill="#f6c01f" d="M 537.5,219.5 C 537.833,219.5 538.167,219.5 538.5,219.5C 538.833,219.5 539.167,219.5 539.5,219.5C 538.058,222.22 536.725,225.054 535.5,228C 537.193,230.22 538.193,232.72 538.5,235.5C 536.456,234.969 534.789,233.802 533.5,232C 527.072,231.327 521.072,229.493 515.5,226.5C 516.209,225.596 517.209,225.263 518.5,225.5C 523.29,227.034 528.29,227.701 533.5,227.5C 533.343,226.127 533.51,224.793 534,223.5C 535.376,222.295 536.542,220.962 537.5,219.5 Z"/></g>
<g><path style="opacity:1" fill="#f89e3d" d="M 509.5,228.5 C 518.627,226.632 521.961,230.299 519.5,239.5C 518.833,239.5 518.167,239.5 517.5,239.5C 517.975,233.631 515.309,229.964 509.5,228.5 Z"/></g>
<g><path style="opacity:1" fill="#f6a60e" d="M 508.5,226.5 C 508.833,226.5 509.167,226.5 509.5,226.5C 511.5,226.5 513.5,226.5 515.5,226.5C 521.072,229.493 527.072,231.327 533.5,232C 534.789,233.802 536.456,234.969 538.5,235.5C 538.5,235.833 538.5,236.167 538.5,236.5C 534.323,235.492 530.489,233.825 527,231.5C 524.946,234.047 523.113,236.714 521.5,239.5C 520.833,239.5 520.167,239.5 519.5,239.5C 521.961,230.299 518.627,226.632 509.5,228.5C 508.662,228.158 508.328,227.492 508.5,226.5 Z"/></g>
<g><path style="opacity:1" fill="#e7cbc0" d="M 626.5,228.5 C 626.908,229.643 627.575,230.643 628.5,231.5C 631.446,232.306 634.112,233.639 636.5,235.5C 639.301,236.062 642.135,236.395 645,236.5C 653.539,236.772 660.706,233.939 666.5,228C 671.856,227.337 677.022,227.837 682,229.5C 685.358,229.577 688.525,228.911 691.5,227.5C 689.351,229.746 686.684,231.246 683.5,232C 678.475,232.328 673.475,232.328 668.5,232C 665.266,234.748 661.932,237.248 658.5,239.5C 649.167,239.5 639.833,239.5 630.5,239.5C 626.226,235.081 621.393,231.081 616,227.5C 610.948,228.591 605.615,229.591 600,230.5C 592.581,229.157 585.414,227.824 578.5,226.5C 580.491,224.939 582.824,223.939 585.5,223.5C 587.797,224.649 590.13,225.815 592.5,227C 600.912,227.648 609.078,227.148 617,225.5C 618.734,226.249 620.567,226.749 622.5,227C 623.566,229.012 624.9,229.512 626.5,228.5 Z"/></g>
<g><path style="opacity:1" fill="#f89434" d="M 538.5,236.5 C 538.209,237.649 537.376,238.316 536,238.5C 534.016,238.074 532.016,237.74 530,237.5C 527.992,237.307 526.492,237.974 525.5,239.5C 524.167,239.5 522.833,239.5 521.5,239.5C 523.113,236.714 524.946,234.047 527,231.5C 530.489,233.825 534.323,235.492 538.5,236.5 Z"/></g>
</svg>
